G04 EAGLE Gerber RS-274X export*
G75*
%MOIN*%
%FSLAX34Y34*%
%LPD*%
%INBottom Copper*%
%IPPOS*%
%AMOC8*
5,1,8,0,0,1.08239X$1,22.5*%
G01*
%ADD10C,0.052000*%
%ADD11P,0.075767X8X202.500000*%
%ADD12R,0.070000X0.070000*%
%ADD13C,0.060000*%
%ADD14C,0.064961*%
%ADD15C,0.010000*%
%ADD16C,0.010000*%


D10*
X11031Y13228D02*
X11031Y13748D01*
X12031Y13748D02*
X12031Y13228D01*
X13031Y13228D02*
X13031Y13748D01*
X14031Y13748D02*
X14031Y13228D01*
X15031Y13228D02*
X15031Y13748D01*
X16031Y13748D02*
X16031Y13228D01*
X17031Y13228D02*
X17031Y13748D01*
D11*
X11425Y5244D03*
D12*
X11425Y4244D03*
D11*
X11425Y6244D03*
X11425Y7244D03*
D13*
X3106Y1394D02*
X3106Y794D01*
X2106Y794D02*
X2106Y1394D01*
D14*
X1606Y23594D02*
X957Y23594D01*
X957Y22594D02*
X1606Y22594D01*
X1606Y21594D02*
X957Y21594D01*
X957Y20594D02*
X1606Y20594D01*
X1606Y19594D02*
X957Y19594D01*
X957Y18594D02*
X1606Y18594D01*
X1606Y17594D02*
X957Y17594D01*
X957Y16594D02*
X1606Y16594D01*
X1606Y15594D02*
X957Y15594D01*
X957Y14594D02*
X1606Y14594D01*
X1606Y13594D02*
X957Y13594D01*
X957Y12594D02*
X1606Y12594D01*
X1606Y11594D02*
X957Y11594D01*
X957Y10594D02*
X1606Y10594D01*
X1606Y9594D02*
X957Y9594D01*
X957Y8594D02*
X1606Y8594D01*
X1606Y7594D02*
X957Y7594D01*
X957Y6594D02*
X1606Y6594D01*
X1606Y5594D02*
X957Y5594D01*
X957Y4594D02*
X1606Y4594D01*
X8606Y4594D02*
X9256Y4594D01*
X9256Y5594D02*
X8606Y5594D01*
X8606Y6594D02*
X9256Y6594D01*
X9256Y7594D02*
X8606Y7594D01*
X8606Y8594D02*
X9256Y8594D01*
X9256Y9594D02*
X8606Y9594D01*
X8606Y10594D02*
X9256Y10594D01*
X9256Y11594D02*
X8606Y11594D01*
X8606Y12594D02*
X9256Y12594D01*
X9256Y13594D02*
X8606Y13594D01*
X8606Y14594D02*
X9256Y14594D01*
X9256Y15594D02*
X8606Y15594D01*
X8606Y16594D02*
X9256Y16594D01*
X9256Y17594D02*
X8606Y17594D01*
X8606Y18594D02*
X9256Y18594D01*
X9256Y19594D02*
X8606Y19594D01*
X8606Y20594D02*
X9256Y20594D01*
X9256Y21594D02*
X8606Y21594D01*
X8606Y22594D02*
X9256Y22594D01*
X9256Y23594D02*
X8606Y23594D01*
X4106Y4685D02*
X4106Y4035D01*
X5106Y4035D02*
X5106Y4685D01*
X6106Y4685D02*
X6106Y4035D01*
D11*
X20638Y13626D03*
D12*
X20638Y12626D03*
D11*
X20638Y14626D03*
X20638Y15626D03*
X20638Y16626D03*
D15*
X10800Y6600D02*
X8700Y6600D01*
X10800Y6600D02*
X11400Y7200D01*
X8700Y6600D02*
X8606Y6594D01*
X11400Y7200D02*
X11425Y7244D01*
X17000Y12800D02*
X17000Y13400D01*
X17000Y12800D02*
X11500Y7300D01*
X17000Y13400D02*
X17031Y13488D01*
X11500Y7300D02*
X11425Y7244D01*
X1700Y16200D02*
X1700Y16500D01*
X1700Y16200D02*
X2100Y15800D01*
X2100Y12000D01*
X1700Y11600D01*
X1700Y16500D02*
X1606Y16594D01*
X1700Y11600D02*
X1606Y11594D01*
X2600Y1500D02*
X2200Y1100D01*
X2600Y1500D02*
X2600Y1600D01*
X4500Y3500D01*
X10700Y3500D01*
X11400Y4200D01*
X2200Y1100D02*
X2106Y1094D01*
X11400Y4200D02*
X11425Y4244D01*
X16100Y13500D02*
X16100Y13700D01*
X17000Y14600D02*
X18000Y15600D01*
X17000Y14600D02*
X16100Y13700D01*
X18000Y15600D02*
X20600Y15600D01*
X16100Y13500D02*
X16031Y13488D01*
X20600Y15600D02*
X20638Y15626D01*
X9100Y22500D02*
X8700Y22500D01*
X9100Y22500D02*
X17000Y14600D01*
X8700Y22500D02*
X8606Y22594D01*
X11500Y4300D02*
X13300Y4300D01*
X21200Y12200D01*
X21200Y15100D01*
X20700Y15600D01*
X11500Y4300D02*
X11425Y4244D01*
X20638Y15626D02*
X20700Y15600D01*
X13000Y13500D02*
X9800Y16700D01*
X9800Y16800D01*
X9500Y17100D01*
X8100Y17100D01*
X1700Y23500D01*
X13000Y13500D02*
X13031Y13488D01*
X1700Y23500D02*
X1606Y23594D01*
X10100Y13500D02*
X11000Y13500D01*
X10100Y13500D02*
X9500Y14100D01*
X8100Y14100D01*
X1700Y20500D01*
X11000Y13500D02*
X11031Y13488D01*
X1700Y20500D02*
X1606Y20594D01*
X1700Y18500D02*
X1700Y18200D01*
X7900Y12000D01*
X7900Y5600D01*
X8400Y5100D01*
X11300Y5100D01*
X11400Y5200D01*
X1700Y18500D02*
X1606Y18594D01*
X11425Y5244D02*
X11400Y5200D01*
X1600Y17600D02*
X1200Y17600D01*
X400Y18400D01*
X400Y18800D01*
X700Y19100D01*
X1800Y19100D01*
X8100Y12800D01*
X8100Y6400D01*
X8400Y6100D01*
X11300Y6100D01*
X11400Y6200D01*
X1606Y17594D02*
X1600Y17600D01*
X11425Y6244D02*
X11400Y6200D01*
X12000Y8600D02*
X8700Y8600D01*
X12000Y8600D02*
X16600Y13200D01*
X16600Y13900D01*
X16900Y14200D01*
X19100Y14200D01*
X20600Y12700D01*
X8700Y8600D02*
X8606Y8594D01*
X20600Y12700D02*
X20638Y12626D01*
D16*
X0Y0D02*
X43307Y0D01*
X43307Y27559D01*
X0Y27559D01*
X0Y0D01*
M02*
