M48
;GenerationSoftware,Autodesk,EAGLE,9.6.2*%
;CreationDate,2021-10-25T07:49:24Z*%
FMAT,2
ICI,OFF
METRIC,TZ,000.000
T3C0.813
T2C1.016
T1C1.100
%
G90
M71
T1
X4080Y57390
X21860Y37070
X21860Y39610
X21860Y42150
X21860Y44690
X21860Y47230
X21860Y49770
X4080Y16750
X21860Y52310
X21860Y54850
X21860Y57390
X21860Y59930
X12970Y11900
X4080Y59930
X15510Y11900
X4080Y54850
X4080Y52310
X4080Y49770
X4080Y47230
X4080Y44690
X4080Y42150
X4080Y39610
X4080Y37070
X4080Y34530
X4080Y31990
X4080Y29450
X4080Y26910
X4080Y24370
X4080Y21830
X4080Y19290
X10430Y11900
X4080Y14210
X4080Y11670
X21860Y11670
X21860Y14210
X21860Y16750
X21860Y19290
X21860Y21830
X21860Y24370
X21860Y26910
X21860Y29450
X21860Y31990
X21860Y34530
T2
X29020Y10780
X29020Y15860
X29020Y18400
X7890Y2780
X5350Y2780
X29020Y13320
T3
X30560Y34260
X33100Y34260
X35640Y34260
X38180Y34260
X40720Y34260
X43260Y34260
X28020Y34260
X52420Y34610
X52420Y32070
X52420Y37150
X52420Y39690
X52420Y42230
M30