G04 EAGLE Gerber RS-274X export*
G75*
%MOMM*%
%FSLAX34Y34*%
%LPD*%
%INSilkscreen Top*%
%IPPOS*%
%AMOC8*
5,1,8,0,0,1.08239X$1,22.5*%
G01*
%ADD10C,0.300000*%
%ADD11C,0.152400*%
%ADD12C,0.127000*%
%ADD13C,0.254000*%
%ADD14C,0.177800*%


D10*
X270000Y280000D02*
X630000Y280000D01*
X630000Y20000D01*
X270000Y20000D01*
X270000Y280000D01*
X830000Y280000D02*
X830000Y30000D01*
X1080000Y30000D01*
X1080000Y280000D01*
X830000Y280000D01*
D11*
X940762Y667432D02*
X940762Y683688D01*
X946181Y674657D01*
X951599Y683688D01*
X951599Y667432D01*
X961808Y673754D02*
X965872Y673754D01*
X961808Y673754D02*
X961696Y673752D01*
X961585Y673746D01*
X961474Y673736D01*
X961363Y673723D01*
X961253Y673705D01*
X961144Y673683D01*
X961035Y673658D01*
X960927Y673629D01*
X960821Y673596D01*
X960715Y673559D01*
X960611Y673519D01*
X960509Y673475D01*
X960408Y673427D01*
X960309Y673376D01*
X960211Y673321D01*
X960116Y673263D01*
X960023Y673202D01*
X959932Y673137D01*
X959843Y673069D01*
X959757Y672998D01*
X959674Y672925D01*
X959593Y672848D01*
X959514Y672768D01*
X959439Y672686D01*
X959367Y672601D01*
X959297Y672514D01*
X959231Y672424D01*
X959168Y672332D01*
X959108Y672237D01*
X959052Y672141D01*
X958999Y672043D01*
X958950Y671943D01*
X958904Y671841D01*
X958862Y671738D01*
X958823Y671633D01*
X958788Y671527D01*
X958757Y671420D01*
X958730Y671312D01*
X958706Y671203D01*
X958687Y671093D01*
X958671Y670983D01*
X958659Y670872D01*
X958651Y670760D01*
X958647Y670649D01*
X958647Y670537D01*
X958651Y670426D01*
X958659Y670314D01*
X958671Y670203D01*
X958687Y670093D01*
X958706Y669983D01*
X958730Y669874D01*
X958757Y669766D01*
X958788Y669659D01*
X958823Y669553D01*
X958862Y669448D01*
X958904Y669345D01*
X958950Y669243D01*
X958999Y669143D01*
X959052Y669045D01*
X959108Y668949D01*
X959168Y668854D01*
X959231Y668762D01*
X959297Y668672D01*
X959367Y668585D01*
X959439Y668500D01*
X959514Y668418D01*
X959593Y668338D01*
X959674Y668261D01*
X959757Y668188D01*
X959843Y668117D01*
X959932Y668049D01*
X960023Y667984D01*
X960116Y667923D01*
X960211Y667865D01*
X960309Y667810D01*
X960408Y667759D01*
X960509Y667711D01*
X960611Y667667D01*
X960715Y667627D01*
X960821Y667590D01*
X960927Y667557D01*
X961035Y667528D01*
X961144Y667503D01*
X961253Y667481D01*
X961363Y667463D01*
X961474Y667450D01*
X961585Y667440D01*
X961696Y667434D01*
X961808Y667432D01*
X965872Y667432D01*
X965872Y675560D01*
X965870Y675661D01*
X965864Y675762D01*
X965855Y675863D01*
X965842Y675964D01*
X965825Y676064D01*
X965804Y676163D01*
X965780Y676261D01*
X965752Y676358D01*
X965720Y676455D01*
X965685Y676550D01*
X965646Y676643D01*
X965604Y676735D01*
X965558Y676826D01*
X965509Y676915D01*
X965457Y677001D01*
X965401Y677086D01*
X965343Y677169D01*
X965281Y677249D01*
X965216Y677327D01*
X965149Y677403D01*
X965079Y677476D01*
X965006Y677546D01*
X964930Y677613D01*
X964852Y677678D01*
X964772Y677740D01*
X964689Y677798D01*
X964604Y677854D01*
X964518Y677906D01*
X964429Y677955D01*
X964338Y678001D01*
X964246Y678043D01*
X964153Y678082D01*
X964058Y678117D01*
X963961Y678149D01*
X963864Y678177D01*
X963766Y678201D01*
X963667Y678222D01*
X963567Y678239D01*
X963466Y678252D01*
X963365Y678261D01*
X963264Y678267D01*
X963163Y678269D01*
X959550Y678269D01*
X973310Y678269D02*
X973310Y667432D01*
X973310Y678269D02*
X977825Y678269D01*
X977929Y678267D01*
X978032Y678261D01*
X978136Y678251D01*
X978239Y678237D01*
X978341Y678219D01*
X978442Y678198D01*
X978543Y678172D01*
X978642Y678143D01*
X978741Y678110D01*
X978838Y678073D01*
X978933Y678032D01*
X979027Y677988D01*
X979119Y677940D01*
X979209Y677889D01*
X979298Y677834D01*
X979384Y677776D01*
X979467Y677714D01*
X979549Y677650D01*
X979627Y677582D01*
X979703Y677512D01*
X979777Y677439D01*
X979847Y677362D01*
X979915Y677284D01*
X979979Y677202D01*
X980041Y677119D01*
X980099Y677033D01*
X980154Y676944D01*
X980205Y676854D01*
X980253Y676762D01*
X980297Y676668D01*
X980338Y676573D01*
X980375Y676476D01*
X980408Y676377D01*
X980437Y676278D01*
X980463Y676177D01*
X980484Y676076D01*
X980502Y675974D01*
X980516Y675871D01*
X980526Y675767D01*
X980532Y675664D01*
X980534Y675560D01*
X980535Y675560D02*
X980535Y667432D01*
X987378Y671044D02*
X987378Y674657D01*
X987380Y674776D01*
X987386Y674896D01*
X987396Y675015D01*
X987410Y675133D01*
X987427Y675252D01*
X987449Y675369D01*
X987474Y675486D01*
X987504Y675601D01*
X987537Y675716D01*
X987574Y675830D01*
X987614Y675942D01*
X987659Y676053D01*
X987707Y676162D01*
X987758Y676270D01*
X987813Y676376D01*
X987872Y676480D01*
X987934Y676582D01*
X987999Y676682D01*
X988068Y676780D01*
X988140Y676876D01*
X988215Y676969D01*
X988292Y677059D01*
X988373Y677147D01*
X988457Y677232D01*
X988544Y677314D01*
X988633Y677394D01*
X988725Y677470D01*
X988819Y677544D01*
X988916Y677614D01*
X989014Y677681D01*
X989115Y677745D01*
X989219Y677805D01*
X989324Y677862D01*
X989431Y677915D01*
X989539Y677965D01*
X989649Y678011D01*
X989761Y678053D01*
X989874Y678092D01*
X989988Y678127D01*
X990103Y678158D01*
X990220Y678186D01*
X990337Y678209D01*
X990454Y678229D01*
X990573Y678245D01*
X990692Y678257D01*
X990811Y678265D01*
X990930Y678269D01*
X991050Y678269D01*
X991169Y678265D01*
X991288Y678257D01*
X991407Y678245D01*
X991526Y678229D01*
X991643Y678209D01*
X991760Y678186D01*
X991877Y678158D01*
X991992Y678127D01*
X992106Y678092D01*
X992219Y678053D01*
X992331Y678011D01*
X992441Y677965D01*
X992549Y677915D01*
X992656Y677862D01*
X992761Y677805D01*
X992865Y677745D01*
X992966Y677681D01*
X993064Y677614D01*
X993161Y677544D01*
X993255Y677470D01*
X993347Y677394D01*
X993436Y677314D01*
X993523Y677232D01*
X993607Y677147D01*
X993688Y677059D01*
X993765Y676969D01*
X993840Y676876D01*
X993912Y676780D01*
X993981Y676682D01*
X994046Y676582D01*
X994108Y676480D01*
X994167Y676376D01*
X994222Y676270D01*
X994273Y676162D01*
X994321Y676053D01*
X994366Y675942D01*
X994406Y675830D01*
X994443Y675716D01*
X994476Y675601D01*
X994506Y675486D01*
X994531Y675369D01*
X994553Y675252D01*
X994570Y675133D01*
X994584Y675015D01*
X994594Y674896D01*
X994600Y674776D01*
X994602Y674657D01*
X994603Y674657D02*
X994603Y671044D01*
X994602Y671044D02*
X994600Y670925D01*
X994594Y670805D01*
X994584Y670686D01*
X994570Y670568D01*
X994553Y670449D01*
X994531Y670332D01*
X994506Y670215D01*
X994476Y670100D01*
X994443Y669985D01*
X994406Y669871D01*
X994366Y669759D01*
X994321Y669648D01*
X994273Y669539D01*
X994222Y669431D01*
X994167Y669325D01*
X994108Y669221D01*
X994046Y669119D01*
X993981Y669019D01*
X993912Y668921D01*
X993840Y668825D01*
X993765Y668732D01*
X993688Y668642D01*
X993607Y668554D01*
X993523Y668469D01*
X993436Y668387D01*
X993347Y668307D01*
X993255Y668231D01*
X993161Y668157D01*
X993064Y668087D01*
X992966Y668020D01*
X992865Y667956D01*
X992761Y667896D01*
X992656Y667839D01*
X992549Y667786D01*
X992441Y667736D01*
X992331Y667690D01*
X992219Y667648D01*
X992106Y667609D01*
X991992Y667574D01*
X991877Y667543D01*
X991760Y667515D01*
X991643Y667492D01*
X991526Y667472D01*
X991407Y667456D01*
X991288Y667444D01*
X991169Y667436D01*
X991050Y667432D01*
X990930Y667432D01*
X990811Y667436D01*
X990692Y667444D01*
X990573Y667456D01*
X990454Y667472D01*
X990337Y667492D01*
X990220Y667515D01*
X990103Y667543D01*
X989988Y667574D01*
X989874Y667609D01*
X989761Y667648D01*
X989649Y667690D01*
X989539Y667736D01*
X989431Y667786D01*
X989324Y667839D01*
X989219Y667896D01*
X989115Y667956D01*
X989014Y668020D01*
X988916Y668087D01*
X988819Y668157D01*
X988725Y668231D01*
X988633Y668307D01*
X988544Y668387D01*
X988457Y668469D01*
X988373Y668554D01*
X988292Y668642D01*
X988215Y668732D01*
X988140Y668825D01*
X988068Y668921D01*
X987999Y669019D01*
X987934Y669119D01*
X987872Y669221D01*
X987813Y669325D01*
X987758Y669431D01*
X987707Y669539D01*
X987659Y669648D01*
X987614Y669759D01*
X987574Y669871D01*
X987537Y669985D01*
X987504Y670100D01*
X987474Y670215D01*
X987449Y670332D01*
X987427Y670449D01*
X987410Y670568D01*
X987396Y670686D01*
X987386Y670805D01*
X987380Y670925D01*
X987378Y671044D01*
X1001162Y670141D02*
X1001162Y683688D01*
X1001162Y670141D02*
X1001164Y670040D01*
X1001170Y669939D01*
X1001179Y669838D01*
X1001192Y669737D01*
X1001209Y669637D01*
X1001230Y669538D01*
X1001254Y669440D01*
X1001282Y669343D01*
X1001314Y669246D01*
X1001349Y669151D01*
X1001388Y669058D01*
X1001430Y668966D01*
X1001476Y668875D01*
X1001525Y668787D01*
X1001577Y668700D01*
X1001633Y668615D01*
X1001691Y668532D01*
X1001753Y668452D01*
X1001818Y668374D01*
X1001885Y668298D01*
X1001955Y668225D01*
X1002028Y668155D01*
X1002104Y668088D01*
X1002182Y668023D01*
X1002262Y667961D01*
X1002345Y667903D01*
X1002430Y667847D01*
X1002517Y667795D01*
X1002605Y667746D01*
X1002696Y667700D01*
X1002788Y667658D01*
X1002881Y667619D01*
X1002976Y667584D01*
X1003073Y667552D01*
X1003170Y667524D01*
X1003268Y667500D01*
X1003367Y667479D01*
X1003467Y667462D01*
X1003568Y667449D01*
X1003669Y667440D01*
X1003770Y667434D01*
X1003871Y667432D01*
X1009261Y671044D02*
X1009261Y674657D01*
X1009262Y674657D02*
X1009264Y674776D01*
X1009270Y674896D01*
X1009280Y675015D01*
X1009294Y675133D01*
X1009311Y675252D01*
X1009333Y675369D01*
X1009358Y675486D01*
X1009388Y675601D01*
X1009421Y675716D01*
X1009458Y675830D01*
X1009498Y675942D01*
X1009543Y676053D01*
X1009591Y676162D01*
X1009642Y676270D01*
X1009697Y676376D01*
X1009756Y676480D01*
X1009818Y676582D01*
X1009883Y676682D01*
X1009952Y676780D01*
X1010024Y676876D01*
X1010099Y676969D01*
X1010176Y677059D01*
X1010257Y677147D01*
X1010341Y677232D01*
X1010428Y677314D01*
X1010517Y677394D01*
X1010609Y677470D01*
X1010703Y677544D01*
X1010800Y677614D01*
X1010898Y677681D01*
X1010999Y677745D01*
X1011103Y677805D01*
X1011208Y677862D01*
X1011315Y677915D01*
X1011423Y677965D01*
X1011533Y678011D01*
X1011645Y678053D01*
X1011758Y678092D01*
X1011872Y678127D01*
X1011987Y678158D01*
X1012104Y678186D01*
X1012221Y678209D01*
X1012338Y678229D01*
X1012457Y678245D01*
X1012576Y678257D01*
X1012695Y678265D01*
X1012814Y678269D01*
X1012934Y678269D01*
X1013053Y678265D01*
X1013172Y678257D01*
X1013291Y678245D01*
X1013410Y678229D01*
X1013527Y678209D01*
X1013644Y678186D01*
X1013761Y678158D01*
X1013876Y678127D01*
X1013990Y678092D01*
X1014103Y678053D01*
X1014215Y678011D01*
X1014325Y677965D01*
X1014433Y677915D01*
X1014540Y677862D01*
X1014645Y677805D01*
X1014749Y677745D01*
X1014850Y677681D01*
X1014948Y677614D01*
X1015045Y677544D01*
X1015139Y677470D01*
X1015231Y677394D01*
X1015320Y677314D01*
X1015407Y677232D01*
X1015491Y677147D01*
X1015572Y677059D01*
X1015649Y676969D01*
X1015724Y676876D01*
X1015796Y676780D01*
X1015865Y676682D01*
X1015930Y676582D01*
X1015992Y676480D01*
X1016051Y676376D01*
X1016106Y676270D01*
X1016157Y676162D01*
X1016205Y676053D01*
X1016250Y675942D01*
X1016290Y675830D01*
X1016327Y675716D01*
X1016360Y675601D01*
X1016390Y675486D01*
X1016415Y675369D01*
X1016437Y675252D01*
X1016454Y675133D01*
X1016468Y675015D01*
X1016478Y674896D01*
X1016484Y674776D01*
X1016486Y674657D01*
X1016486Y671044D01*
X1016484Y670925D01*
X1016478Y670805D01*
X1016468Y670686D01*
X1016454Y670568D01*
X1016437Y670449D01*
X1016415Y670332D01*
X1016390Y670215D01*
X1016360Y670100D01*
X1016327Y669985D01*
X1016290Y669871D01*
X1016250Y669759D01*
X1016205Y669648D01*
X1016157Y669539D01*
X1016106Y669431D01*
X1016051Y669325D01*
X1015992Y669221D01*
X1015930Y669119D01*
X1015865Y669019D01*
X1015796Y668921D01*
X1015724Y668825D01*
X1015649Y668732D01*
X1015572Y668642D01*
X1015491Y668554D01*
X1015407Y668469D01*
X1015320Y668387D01*
X1015231Y668307D01*
X1015139Y668231D01*
X1015045Y668157D01*
X1014948Y668087D01*
X1014850Y668020D01*
X1014749Y667956D01*
X1014645Y667896D01*
X1014540Y667839D01*
X1014433Y667786D01*
X1014325Y667736D01*
X1014215Y667690D01*
X1014103Y667648D01*
X1013990Y667609D01*
X1013876Y667574D01*
X1013761Y667543D01*
X1013644Y667515D01*
X1013527Y667492D01*
X1013410Y667472D01*
X1013291Y667456D01*
X1013172Y667444D01*
X1013053Y667436D01*
X1012934Y667432D01*
X1012814Y667432D01*
X1012695Y667436D01*
X1012576Y667444D01*
X1012457Y667456D01*
X1012338Y667472D01*
X1012221Y667492D01*
X1012104Y667515D01*
X1011987Y667543D01*
X1011872Y667574D01*
X1011758Y667609D01*
X1011645Y667648D01*
X1011533Y667690D01*
X1011423Y667736D01*
X1011315Y667786D01*
X1011208Y667839D01*
X1011103Y667896D01*
X1010999Y667956D01*
X1010898Y668020D01*
X1010800Y668087D01*
X1010703Y668157D01*
X1010609Y668231D01*
X1010517Y668307D01*
X1010428Y668387D01*
X1010341Y668469D01*
X1010257Y668554D01*
X1010176Y668642D01*
X1010099Y668732D01*
X1010024Y668825D01*
X1009952Y668921D01*
X1009883Y669019D01*
X1009818Y669119D01*
X1009756Y669221D01*
X1009697Y669325D01*
X1009642Y669431D01*
X1009591Y669539D01*
X1009543Y669648D01*
X1009498Y669759D01*
X1009458Y669871D01*
X1009421Y669985D01*
X1009388Y670100D01*
X1009358Y670215D01*
X1009333Y670332D01*
X1009311Y670449D01*
X1009294Y670568D01*
X1009280Y670686D01*
X1009270Y670805D01*
X1009264Y670925D01*
X1009262Y671044D01*
X949793Y652954D02*
X949791Y653079D01*
X949785Y653204D01*
X949776Y653329D01*
X949762Y653453D01*
X949745Y653577D01*
X949724Y653701D01*
X949699Y653823D01*
X949670Y653945D01*
X949638Y654066D01*
X949602Y654186D01*
X949562Y654305D01*
X949519Y654422D01*
X949472Y654538D01*
X949421Y654653D01*
X949367Y654765D01*
X949309Y654877D01*
X949249Y654986D01*
X949184Y655093D01*
X949117Y655199D01*
X949046Y655302D01*
X948972Y655403D01*
X948895Y655502D01*
X948815Y655598D01*
X948732Y655692D01*
X948647Y655783D01*
X948558Y655872D01*
X948467Y655957D01*
X948373Y656040D01*
X948277Y656120D01*
X948178Y656197D01*
X948077Y656271D01*
X947974Y656342D01*
X947868Y656409D01*
X947761Y656474D01*
X947652Y656534D01*
X947540Y656592D01*
X947428Y656646D01*
X947313Y656697D01*
X947197Y656744D01*
X947080Y656787D01*
X946961Y656827D01*
X946841Y656863D01*
X946720Y656895D01*
X946598Y656924D01*
X946476Y656949D01*
X946352Y656970D01*
X946228Y656987D01*
X946104Y657001D01*
X945979Y657010D01*
X945854Y657016D01*
X945729Y657018D01*
X945586Y657016D01*
X945444Y657010D01*
X945301Y657000D01*
X945159Y656987D01*
X945018Y656969D01*
X944876Y656948D01*
X944736Y656923D01*
X944596Y656894D01*
X944457Y656861D01*
X944319Y656824D01*
X944182Y656784D01*
X944047Y656740D01*
X943912Y656692D01*
X943779Y656640D01*
X943647Y656585D01*
X943517Y656526D01*
X943389Y656464D01*
X943262Y656398D01*
X943137Y656329D01*
X943014Y656257D01*
X942894Y656181D01*
X942775Y656102D01*
X942658Y656019D01*
X942544Y655934D01*
X942432Y655845D01*
X942323Y655754D01*
X942216Y655659D01*
X942111Y655562D01*
X942010Y655461D01*
X941911Y655358D01*
X941815Y655253D01*
X941722Y655144D01*
X941632Y655033D01*
X941545Y654920D01*
X941461Y654805D01*
X941381Y654687D01*
X941303Y654567D01*
X941229Y654445D01*
X941159Y654321D01*
X941091Y654195D01*
X941028Y654067D01*
X940967Y653938D01*
X940910Y653807D01*
X940857Y653675D01*
X940808Y653541D01*
X940762Y653406D01*
X948438Y649793D02*
X948532Y649885D01*
X948622Y649979D01*
X948710Y650076D01*
X948795Y650176D01*
X948877Y650278D01*
X948956Y650383D01*
X949031Y650490D01*
X949103Y650599D01*
X949172Y650710D01*
X949238Y650824D01*
X949300Y650939D01*
X949359Y651056D01*
X949414Y651175D01*
X949465Y651295D01*
X949513Y651417D01*
X949558Y651540D01*
X949598Y651664D01*
X949635Y651790D01*
X949668Y651917D01*
X949697Y652044D01*
X949723Y652173D01*
X949744Y652302D01*
X949762Y652432D01*
X949775Y652562D01*
X949785Y652692D01*
X949791Y652823D01*
X949793Y652954D01*
X948438Y649793D02*
X940762Y640762D01*
X949793Y640762D01*
X956393Y648890D02*
X956397Y649210D01*
X956408Y649529D01*
X956427Y649849D01*
X956454Y650167D01*
X956488Y650485D01*
X956530Y650802D01*
X956580Y651118D01*
X956637Y651433D01*
X956701Y651746D01*
X956773Y652058D01*
X956852Y652368D01*
X956939Y652675D01*
X957033Y652981D01*
X957134Y653284D01*
X957243Y653585D01*
X957358Y653883D01*
X957481Y654179D01*
X957611Y654471D01*
X957748Y654760D01*
X957748Y654761D02*
X957787Y654869D01*
X957830Y654976D01*
X957876Y655081D01*
X957927Y655185D01*
X957980Y655287D01*
X958037Y655387D01*
X958098Y655485D01*
X958162Y655580D01*
X958229Y655674D01*
X958300Y655765D01*
X958373Y655854D01*
X958450Y655940D01*
X958529Y656023D01*
X958611Y656104D01*
X958696Y656182D01*
X958784Y656256D01*
X958874Y656328D01*
X958966Y656396D01*
X959061Y656462D01*
X959158Y656524D01*
X959257Y656582D01*
X959359Y656638D01*
X959461Y656689D01*
X959566Y656737D01*
X959672Y656782D01*
X959780Y656823D01*
X959889Y656860D01*
X959999Y656893D01*
X960111Y656922D01*
X960223Y656948D01*
X960336Y656970D01*
X960450Y656987D01*
X960564Y657001D01*
X960679Y657011D01*
X960794Y657017D01*
X960909Y657019D01*
X960909Y657018D02*
X961024Y657016D01*
X961139Y657010D01*
X961254Y657000D01*
X961368Y656986D01*
X961482Y656969D01*
X961595Y656947D01*
X961707Y656921D01*
X961819Y656892D01*
X961929Y656859D01*
X962038Y656822D01*
X962146Y656781D01*
X962252Y656736D01*
X962357Y656688D01*
X962459Y656637D01*
X962560Y656581D01*
X962660Y656523D01*
X962757Y656461D01*
X962851Y656396D01*
X962944Y656327D01*
X963034Y656255D01*
X963122Y656181D01*
X963207Y656103D01*
X963289Y656022D01*
X963368Y655939D01*
X963445Y655853D01*
X963518Y655764D01*
X963589Y655673D01*
X963656Y655579D01*
X963720Y655484D01*
X963781Y655386D01*
X963838Y655286D01*
X963891Y655184D01*
X963942Y655080D01*
X963988Y654975D01*
X964031Y654868D01*
X964070Y654760D01*
X964069Y654760D02*
X964206Y654471D01*
X964336Y654179D01*
X964459Y653883D01*
X964574Y653585D01*
X964683Y653284D01*
X964784Y652981D01*
X964878Y652675D01*
X964965Y652368D01*
X965044Y652058D01*
X965116Y651746D01*
X965180Y651433D01*
X965237Y651118D01*
X965287Y650802D01*
X965329Y650485D01*
X965363Y650167D01*
X965390Y649849D01*
X965409Y649529D01*
X965420Y649210D01*
X965424Y648890D01*
X956394Y648890D02*
X956398Y648570D01*
X956409Y648251D01*
X956428Y647931D01*
X956455Y647613D01*
X956489Y647295D01*
X956531Y646978D01*
X956581Y646662D01*
X956638Y646347D01*
X956702Y646034D01*
X956774Y645722D01*
X956853Y645412D01*
X956940Y645105D01*
X957034Y644799D01*
X957135Y644496D01*
X957244Y644195D01*
X957359Y643897D01*
X957482Y643601D01*
X957612Y643309D01*
X957749Y643020D01*
X957748Y643020D02*
X957787Y642912D01*
X957830Y642805D01*
X957876Y642700D01*
X957927Y642596D01*
X957980Y642494D01*
X958037Y642394D01*
X958098Y642296D01*
X958162Y642201D01*
X958229Y642107D01*
X958300Y642016D01*
X958373Y641927D01*
X958450Y641841D01*
X958529Y641758D01*
X958611Y641677D01*
X958696Y641599D01*
X958784Y641525D01*
X958874Y641453D01*
X958967Y641384D01*
X959061Y641319D01*
X959158Y641257D01*
X959258Y641199D01*
X959359Y641143D01*
X959461Y641092D01*
X959566Y641044D01*
X959672Y640999D01*
X959780Y640958D01*
X959889Y640921D01*
X959999Y640888D01*
X960111Y640859D01*
X960223Y640833D01*
X960336Y640811D01*
X960450Y640794D01*
X960564Y640780D01*
X960679Y640770D01*
X960794Y640764D01*
X960909Y640762D01*
X964069Y643020D02*
X964206Y643309D01*
X964336Y643601D01*
X964459Y643897D01*
X964574Y644195D01*
X964683Y644496D01*
X964784Y644799D01*
X964878Y645105D01*
X964965Y645412D01*
X965044Y645722D01*
X965116Y646034D01*
X965180Y646347D01*
X965237Y646662D01*
X965287Y646978D01*
X965329Y647295D01*
X965363Y647613D01*
X965390Y647931D01*
X965409Y648251D01*
X965420Y648570D01*
X965424Y648890D01*
X964070Y643020D02*
X964031Y642912D01*
X963988Y642805D01*
X963942Y642700D01*
X963891Y642596D01*
X963838Y642494D01*
X963781Y642394D01*
X963720Y642296D01*
X963656Y642201D01*
X963589Y642107D01*
X963518Y642016D01*
X963445Y641927D01*
X963368Y641841D01*
X963289Y641758D01*
X963207Y641677D01*
X963122Y641599D01*
X963034Y641525D01*
X962944Y641453D01*
X962851Y641384D01*
X962757Y641319D01*
X962660Y641257D01*
X962560Y641199D01*
X962459Y641143D01*
X962356Y641092D01*
X962252Y641044D01*
X962146Y640999D01*
X962038Y640958D01*
X961929Y640921D01*
X961819Y640888D01*
X961707Y640859D01*
X961595Y640833D01*
X961482Y640811D01*
X961368Y640794D01*
X961254Y640780D01*
X961139Y640770D01*
X961024Y640764D01*
X960909Y640762D01*
X957296Y644374D02*
X964521Y653406D01*
X972024Y653406D02*
X976540Y657018D01*
X976540Y640762D01*
X972024Y640762D02*
X981056Y640762D01*
X987656Y644374D02*
X991268Y657018D01*
X987656Y644374D02*
X996687Y644374D01*
X993977Y640762D02*
X993977Y647987D01*
X1008254Y657018D02*
X1008379Y657016D01*
X1008504Y657010D01*
X1008629Y657001D01*
X1008753Y656987D01*
X1008877Y656970D01*
X1009001Y656949D01*
X1009123Y656924D01*
X1009245Y656895D01*
X1009366Y656863D01*
X1009486Y656827D01*
X1009605Y656787D01*
X1009722Y656744D01*
X1009838Y656697D01*
X1009953Y656646D01*
X1010065Y656592D01*
X1010177Y656534D01*
X1010286Y656474D01*
X1010393Y656409D01*
X1010499Y656342D01*
X1010602Y656271D01*
X1010703Y656197D01*
X1010802Y656120D01*
X1010898Y656040D01*
X1010992Y655957D01*
X1011083Y655872D01*
X1011172Y655783D01*
X1011257Y655692D01*
X1011340Y655598D01*
X1011420Y655502D01*
X1011497Y655403D01*
X1011571Y655302D01*
X1011642Y655199D01*
X1011709Y655093D01*
X1011774Y654986D01*
X1011834Y654877D01*
X1011892Y654765D01*
X1011946Y654653D01*
X1011997Y654538D01*
X1012044Y654422D01*
X1012087Y654305D01*
X1012127Y654186D01*
X1012163Y654066D01*
X1012195Y653945D01*
X1012224Y653823D01*
X1012249Y653701D01*
X1012270Y653577D01*
X1012287Y653453D01*
X1012301Y653329D01*
X1012310Y653204D01*
X1012316Y653079D01*
X1012318Y652954D01*
X1008254Y657018D02*
X1008111Y657016D01*
X1007969Y657010D01*
X1007826Y657000D01*
X1007684Y656987D01*
X1007543Y656969D01*
X1007401Y656948D01*
X1007261Y656923D01*
X1007121Y656894D01*
X1006982Y656861D01*
X1006844Y656824D01*
X1006707Y656784D01*
X1006572Y656740D01*
X1006437Y656692D01*
X1006304Y656640D01*
X1006172Y656585D01*
X1006042Y656526D01*
X1005914Y656464D01*
X1005787Y656398D01*
X1005662Y656329D01*
X1005539Y656257D01*
X1005419Y656181D01*
X1005300Y656102D01*
X1005183Y656019D01*
X1005069Y655934D01*
X1004957Y655845D01*
X1004848Y655754D01*
X1004741Y655659D01*
X1004636Y655562D01*
X1004535Y655461D01*
X1004436Y655358D01*
X1004340Y655253D01*
X1004247Y655144D01*
X1004157Y655033D01*
X1004070Y654920D01*
X1003986Y654805D01*
X1003906Y654687D01*
X1003828Y654567D01*
X1003754Y654445D01*
X1003684Y654321D01*
X1003616Y654195D01*
X1003553Y654067D01*
X1003492Y653938D01*
X1003435Y653807D01*
X1003382Y653675D01*
X1003333Y653541D01*
X1003287Y653406D01*
X1010963Y649793D02*
X1011057Y649885D01*
X1011147Y649979D01*
X1011235Y650076D01*
X1011320Y650176D01*
X1011402Y650278D01*
X1011481Y650383D01*
X1011556Y650490D01*
X1011628Y650599D01*
X1011697Y650710D01*
X1011763Y650824D01*
X1011825Y650939D01*
X1011884Y651056D01*
X1011939Y651175D01*
X1011990Y651295D01*
X1012038Y651417D01*
X1012083Y651540D01*
X1012123Y651664D01*
X1012160Y651790D01*
X1012193Y651917D01*
X1012222Y652044D01*
X1012248Y652173D01*
X1012269Y652302D01*
X1012287Y652432D01*
X1012300Y652562D01*
X1012310Y652692D01*
X1012316Y652823D01*
X1012318Y652954D01*
X1010963Y649793D02*
X1003287Y640762D01*
X1012318Y640762D01*
X1018918Y640762D02*
X1023434Y640762D01*
X1023567Y640764D01*
X1023699Y640770D01*
X1023831Y640780D01*
X1023963Y640793D01*
X1024095Y640811D01*
X1024225Y640832D01*
X1024356Y640857D01*
X1024485Y640886D01*
X1024613Y640919D01*
X1024741Y640955D01*
X1024867Y640995D01*
X1024992Y641039D01*
X1025116Y641087D01*
X1025238Y641138D01*
X1025359Y641193D01*
X1025478Y641251D01*
X1025596Y641313D01*
X1025711Y641378D01*
X1025825Y641447D01*
X1025936Y641518D01*
X1026045Y641594D01*
X1026152Y641672D01*
X1026257Y641753D01*
X1026359Y641838D01*
X1026459Y641925D01*
X1026556Y642015D01*
X1026651Y642108D01*
X1026742Y642204D01*
X1026831Y642302D01*
X1026917Y642403D01*
X1027000Y642507D01*
X1027080Y642613D01*
X1027156Y642721D01*
X1027230Y642831D01*
X1027300Y642944D01*
X1027367Y643058D01*
X1027430Y643175D01*
X1027490Y643293D01*
X1027547Y643413D01*
X1027600Y643535D01*
X1027649Y643658D01*
X1027695Y643782D01*
X1027737Y643908D01*
X1027775Y644035D01*
X1027810Y644163D01*
X1027841Y644292D01*
X1027868Y644421D01*
X1027891Y644552D01*
X1027911Y644683D01*
X1027926Y644815D01*
X1027938Y644947D01*
X1027946Y645079D01*
X1027950Y645212D01*
X1027950Y645344D01*
X1027946Y645477D01*
X1027938Y645609D01*
X1027926Y645741D01*
X1027911Y645873D01*
X1027891Y646004D01*
X1027868Y646135D01*
X1027841Y646264D01*
X1027810Y646393D01*
X1027775Y646521D01*
X1027737Y646648D01*
X1027695Y646774D01*
X1027649Y646898D01*
X1027600Y647021D01*
X1027547Y647143D01*
X1027490Y647263D01*
X1027430Y647381D01*
X1027367Y647498D01*
X1027300Y647612D01*
X1027230Y647725D01*
X1027156Y647835D01*
X1027080Y647943D01*
X1027000Y648049D01*
X1026917Y648153D01*
X1026831Y648254D01*
X1026742Y648352D01*
X1026651Y648448D01*
X1026556Y648541D01*
X1026459Y648631D01*
X1026359Y648718D01*
X1026257Y648803D01*
X1026152Y648884D01*
X1026045Y648962D01*
X1025936Y649038D01*
X1025825Y649109D01*
X1025711Y649178D01*
X1025596Y649243D01*
X1025478Y649305D01*
X1025359Y649363D01*
X1025238Y649418D01*
X1025116Y649469D01*
X1024992Y649517D01*
X1024867Y649561D01*
X1024741Y649601D01*
X1024613Y649637D01*
X1024485Y649670D01*
X1024356Y649699D01*
X1024225Y649724D01*
X1024095Y649745D01*
X1023963Y649763D01*
X1023831Y649776D01*
X1023699Y649786D01*
X1023567Y649792D01*
X1023434Y649794D01*
X1024337Y657018D02*
X1018918Y657018D01*
X1024337Y657018D02*
X1024456Y657016D01*
X1024576Y657010D01*
X1024695Y657000D01*
X1024813Y656986D01*
X1024932Y656969D01*
X1025049Y656947D01*
X1025166Y656922D01*
X1025281Y656892D01*
X1025396Y656859D01*
X1025510Y656822D01*
X1025622Y656782D01*
X1025733Y656737D01*
X1025842Y656689D01*
X1025950Y656638D01*
X1026056Y656583D01*
X1026160Y656524D01*
X1026262Y656462D01*
X1026362Y656397D01*
X1026460Y656328D01*
X1026556Y656256D01*
X1026649Y656181D01*
X1026739Y656104D01*
X1026827Y656023D01*
X1026912Y655939D01*
X1026994Y655852D01*
X1027074Y655763D01*
X1027150Y655671D01*
X1027224Y655577D01*
X1027294Y655480D01*
X1027361Y655382D01*
X1027425Y655281D01*
X1027485Y655177D01*
X1027542Y655072D01*
X1027595Y654965D01*
X1027645Y654857D01*
X1027691Y654747D01*
X1027733Y654635D01*
X1027772Y654522D01*
X1027807Y654408D01*
X1027838Y654293D01*
X1027866Y654176D01*
X1027889Y654059D01*
X1027909Y653942D01*
X1027925Y653823D01*
X1027937Y653704D01*
X1027945Y653585D01*
X1027949Y653466D01*
X1027949Y653346D01*
X1027945Y653227D01*
X1027937Y653108D01*
X1027925Y652989D01*
X1027909Y652870D01*
X1027889Y652753D01*
X1027866Y652636D01*
X1027838Y652519D01*
X1027807Y652404D01*
X1027772Y652290D01*
X1027733Y652177D01*
X1027691Y652065D01*
X1027645Y651955D01*
X1027595Y651847D01*
X1027542Y651740D01*
X1027485Y651635D01*
X1027425Y651531D01*
X1027361Y651430D01*
X1027294Y651332D01*
X1027224Y651235D01*
X1027150Y651141D01*
X1027074Y651049D01*
X1026994Y650960D01*
X1026912Y650873D01*
X1026827Y650789D01*
X1026739Y650708D01*
X1026649Y650631D01*
X1026556Y650556D01*
X1026460Y650484D01*
X1026362Y650415D01*
X1026262Y650350D01*
X1026160Y650288D01*
X1026056Y650229D01*
X1025950Y650174D01*
X1025842Y650123D01*
X1025733Y650075D01*
X1025622Y650030D01*
X1025510Y649990D01*
X1025396Y649953D01*
X1025281Y649920D01*
X1025166Y649890D01*
X1025049Y649865D01*
X1024932Y649843D01*
X1024813Y649826D01*
X1024695Y649812D01*
X1024576Y649802D01*
X1024456Y649796D01*
X1024337Y649794D01*
X1024337Y649793D02*
X1020724Y649793D01*
X1034549Y653406D02*
X1039065Y657018D01*
X1039065Y640762D01*
X1043580Y640762D02*
X1034549Y640762D01*
X1050181Y649793D02*
X1055599Y649793D01*
X1055717Y649791D01*
X1055835Y649785D01*
X1055953Y649776D01*
X1056070Y649762D01*
X1056187Y649745D01*
X1056304Y649724D01*
X1056419Y649699D01*
X1056534Y649670D01*
X1056648Y649637D01*
X1056760Y649601D01*
X1056871Y649561D01*
X1056981Y649518D01*
X1057090Y649471D01*
X1057197Y649421D01*
X1057302Y649366D01*
X1057405Y649309D01*
X1057506Y649248D01*
X1057606Y649184D01*
X1057703Y649117D01*
X1057798Y649047D01*
X1057890Y648973D01*
X1057981Y648897D01*
X1058068Y648817D01*
X1058153Y648735D01*
X1058235Y648650D01*
X1058315Y648563D01*
X1058391Y648472D01*
X1058465Y648380D01*
X1058535Y648285D01*
X1058602Y648188D01*
X1058666Y648088D01*
X1058727Y647987D01*
X1058784Y647884D01*
X1058839Y647779D01*
X1058889Y647672D01*
X1058936Y647563D01*
X1058979Y647453D01*
X1059019Y647342D01*
X1059055Y647230D01*
X1059088Y647116D01*
X1059117Y647001D01*
X1059142Y646886D01*
X1059163Y646769D01*
X1059180Y646652D01*
X1059194Y646535D01*
X1059203Y646417D01*
X1059209Y646299D01*
X1059211Y646181D01*
X1059212Y646181D02*
X1059212Y645278D01*
X1059210Y645145D01*
X1059204Y645013D01*
X1059194Y644881D01*
X1059181Y644749D01*
X1059163Y644617D01*
X1059142Y644487D01*
X1059117Y644356D01*
X1059088Y644227D01*
X1059055Y644099D01*
X1059019Y643971D01*
X1058979Y643845D01*
X1058935Y643720D01*
X1058887Y643596D01*
X1058836Y643474D01*
X1058781Y643353D01*
X1058723Y643234D01*
X1058661Y643116D01*
X1058596Y643001D01*
X1058527Y642887D01*
X1058456Y642776D01*
X1058380Y642667D01*
X1058302Y642560D01*
X1058221Y642455D01*
X1058136Y642353D01*
X1058049Y642253D01*
X1057959Y642156D01*
X1057866Y642061D01*
X1057770Y641970D01*
X1057672Y641881D01*
X1057571Y641795D01*
X1057467Y641712D01*
X1057361Y641632D01*
X1057253Y641556D01*
X1057143Y641482D01*
X1057030Y641412D01*
X1056916Y641345D01*
X1056799Y641282D01*
X1056681Y641222D01*
X1056561Y641165D01*
X1056439Y641112D01*
X1056316Y641063D01*
X1056192Y641017D01*
X1056066Y640975D01*
X1055939Y640937D01*
X1055811Y640902D01*
X1055682Y640871D01*
X1055553Y640844D01*
X1055422Y640821D01*
X1055291Y640801D01*
X1055159Y640786D01*
X1055027Y640774D01*
X1054895Y640766D01*
X1054762Y640762D01*
X1054630Y640762D01*
X1054497Y640766D01*
X1054365Y640774D01*
X1054233Y640786D01*
X1054101Y640801D01*
X1053970Y640821D01*
X1053839Y640844D01*
X1053710Y640871D01*
X1053581Y640902D01*
X1053453Y640937D01*
X1053326Y640975D01*
X1053200Y641017D01*
X1053076Y641063D01*
X1052953Y641112D01*
X1052831Y641165D01*
X1052711Y641222D01*
X1052593Y641282D01*
X1052476Y641345D01*
X1052362Y641412D01*
X1052249Y641482D01*
X1052139Y641556D01*
X1052031Y641632D01*
X1051925Y641712D01*
X1051821Y641795D01*
X1051720Y641881D01*
X1051622Y641970D01*
X1051526Y642061D01*
X1051433Y642156D01*
X1051343Y642253D01*
X1051256Y642353D01*
X1051171Y642455D01*
X1051090Y642560D01*
X1051012Y642667D01*
X1050936Y642776D01*
X1050865Y642887D01*
X1050796Y643001D01*
X1050731Y643116D01*
X1050669Y643234D01*
X1050611Y643353D01*
X1050556Y643474D01*
X1050505Y643596D01*
X1050457Y643720D01*
X1050413Y643845D01*
X1050373Y643971D01*
X1050337Y644099D01*
X1050304Y644227D01*
X1050275Y644356D01*
X1050250Y644487D01*
X1050229Y644617D01*
X1050211Y644749D01*
X1050198Y644881D01*
X1050188Y645013D01*
X1050182Y645145D01*
X1050180Y645278D01*
X1050181Y645278D02*
X1050181Y649793D01*
X1050180Y649793D02*
X1050182Y649970D01*
X1050189Y650148D01*
X1050200Y650325D01*
X1050215Y650501D01*
X1050234Y650677D01*
X1050258Y650853D01*
X1050286Y651028D01*
X1050319Y651203D01*
X1050356Y651376D01*
X1050397Y651549D01*
X1050442Y651720D01*
X1050491Y651890D01*
X1050545Y652059D01*
X1050602Y652227D01*
X1050664Y652393D01*
X1050730Y652558D01*
X1050800Y652721D01*
X1050874Y652882D01*
X1050951Y653041D01*
X1051033Y653199D01*
X1051119Y653354D01*
X1051208Y653507D01*
X1051301Y653658D01*
X1051398Y653807D01*
X1051498Y653953D01*
X1051602Y654097D01*
X1051709Y654238D01*
X1051820Y654376D01*
X1051934Y654512D01*
X1052052Y654645D01*
X1052172Y654775D01*
X1052296Y654902D01*
X1052423Y655026D01*
X1052553Y655146D01*
X1052686Y655264D01*
X1052821Y655378D01*
X1052960Y655489D01*
X1053101Y655596D01*
X1053245Y655700D01*
X1053391Y655800D01*
X1053540Y655897D01*
X1053691Y655990D01*
X1053844Y656079D01*
X1053999Y656165D01*
X1054157Y656247D01*
X1054316Y656324D01*
X1054477Y656398D01*
X1054640Y656468D01*
X1054805Y656534D01*
X1054971Y656596D01*
X1055139Y656653D01*
X1055308Y656707D01*
X1055478Y656756D01*
X1055649Y656801D01*
X1055822Y656842D01*
X1055995Y656879D01*
X1056170Y656912D01*
X1056345Y656940D01*
X1056521Y656964D01*
X1056697Y656983D01*
X1056873Y656998D01*
X1057050Y657009D01*
X1057228Y657016D01*
X1057405Y657018D01*
X1065812Y653406D02*
X1070327Y657018D01*
X1070327Y640762D01*
X1065812Y640762D02*
X1074843Y640762D01*
X29238Y15278D02*
X29238Y10762D01*
X29238Y15278D02*
X29236Y15411D01*
X29230Y15543D01*
X29220Y15675D01*
X29207Y15807D01*
X29189Y15939D01*
X29168Y16069D01*
X29143Y16200D01*
X29114Y16329D01*
X29081Y16457D01*
X29045Y16585D01*
X29005Y16711D01*
X28961Y16836D01*
X28913Y16960D01*
X28862Y17082D01*
X28807Y17203D01*
X28749Y17322D01*
X28687Y17440D01*
X28622Y17555D01*
X28553Y17669D01*
X28482Y17780D01*
X28406Y17889D01*
X28328Y17996D01*
X28247Y18101D01*
X28162Y18203D01*
X28075Y18303D01*
X27985Y18400D01*
X27892Y18495D01*
X27796Y18586D01*
X27698Y18675D01*
X27597Y18761D01*
X27493Y18844D01*
X27387Y18924D01*
X27279Y19000D01*
X27169Y19074D01*
X27056Y19144D01*
X26942Y19211D01*
X26825Y19274D01*
X26707Y19334D01*
X26587Y19391D01*
X26465Y19444D01*
X26342Y19493D01*
X26218Y19539D01*
X26092Y19581D01*
X25965Y19619D01*
X25837Y19654D01*
X25708Y19685D01*
X25579Y19712D01*
X25448Y19735D01*
X25317Y19755D01*
X25185Y19770D01*
X25053Y19782D01*
X24921Y19790D01*
X24788Y19794D01*
X24656Y19794D01*
X24523Y19790D01*
X24391Y19782D01*
X24259Y19770D01*
X24127Y19755D01*
X23996Y19735D01*
X23865Y19712D01*
X23736Y19685D01*
X23607Y19654D01*
X23479Y19619D01*
X23352Y19581D01*
X23226Y19539D01*
X23102Y19493D01*
X22979Y19444D01*
X22857Y19391D01*
X22737Y19334D01*
X22619Y19274D01*
X22502Y19211D01*
X22388Y19144D01*
X22275Y19074D01*
X22165Y19000D01*
X22057Y18924D01*
X21951Y18844D01*
X21847Y18761D01*
X21746Y18675D01*
X21648Y18586D01*
X21552Y18495D01*
X21459Y18400D01*
X21369Y18303D01*
X21282Y18203D01*
X21197Y18101D01*
X21116Y17996D01*
X21038Y17889D01*
X20962Y17780D01*
X20891Y17669D01*
X20822Y17555D01*
X20757Y17440D01*
X20695Y17322D01*
X20637Y17203D01*
X20582Y17082D01*
X20531Y16960D01*
X20483Y16836D01*
X20439Y16711D01*
X20399Y16585D01*
X20363Y16457D01*
X20330Y16329D01*
X20301Y16200D01*
X20276Y16069D01*
X20255Y15939D01*
X20237Y15807D01*
X20224Y15675D01*
X20214Y15543D01*
X20208Y15411D01*
X20206Y15278D01*
X12982Y16181D02*
X12982Y10762D01*
X12982Y16181D02*
X12984Y16300D01*
X12990Y16420D01*
X13000Y16539D01*
X13014Y16657D01*
X13031Y16776D01*
X13053Y16893D01*
X13078Y17010D01*
X13108Y17125D01*
X13141Y17240D01*
X13178Y17354D01*
X13218Y17466D01*
X13263Y17577D01*
X13311Y17686D01*
X13362Y17794D01*
X13417Y17900D01*
X13476Y18004D01*
X13538Y18106D01*
X13603Y18206D01*
X13672Y18304D01*
X13744Y18400D01*
X13819Y18493D01*
X13896Y18583D01*
X13977Y18671D01*
X14061Y18756D01*
X14148Y18838D01*
X14237Y18918D01*
X14329Y18994D01*
X14423Y19068D01*
X14520Y19138D01*
X14618Y19205D01*
X14719Y19269D01*
X14823Y19329D01*
X14928Y19386D01*
X15035Y19439D01*
X15143Y19489D01*
X15253Y19535D01*
X15365Y19577D01*
X15478Y19616D01*
X15592Y19651D01*
X15707Y19682D01*
X15824Y19710D01*
X15941Y19733D01*
X16058Y19753D01*
X16177Y19769D01*
X16296Y19781D01*
X16415Y19789D01*
X16534Y19793D01*
X16654Y19793D01*
X16773Y19789D01*
X16892Y19781D01*
X17011Y19769D01*
X17130Y19753D01*
X17247Y19733D01*
X17364Y19710D01*
X17481Y19682D01*
X17596Y19651D01*
X17710Y19616D01*
X17823Y19577D01*
X17935Y19535D01*
X18045Y19489D01*
X18153Y19439D01*
X18260Y19386D01*
X18365Y19329D01*
X18469Y19269D01*
X18570Y19205D01*
X18668Y19138D01*
X18765Y19068D01*
X18859Y18994D01*
X18951Y18918D01*
X19040Y18838D01*
X19127Y18756D01*
X19211Y18671D01*
X19292Y18583D01*
X19369Y18493D01*
X19444Y18400D01*
X19516Y18304D01*
X19585Y18206D01*
X19650Y18106D01*
X19712Y18004D01*
X19771Y17900D01*
X19826Y17794D01*
X19877Y17686D01*
X19925Y17577D01*
X19970Y17466D01*
X20010Y17354D01*
X20047Y17240D01*
X20080Y17125D01*
X20110Y17010D01*
X20135Y16893D01*
X20157Y16776D01*
X20174Y16657D01*
X20188Y16539D01*
X20198Y16420D01*
X20204Y16300D01*
X20206Y16181D01*
X20207Y16181D02*
X20207Y12568D01*
X28335Y25768D02*
X29238Y25768D01*
X28335Y25768D02*
X28335Y26671D01*
X29238Y26671D01*
X29238Y25768D01*
X29238Y32646D02*
X29238Y37161D01*
X29236Y37294D01*
X29230Y37426D01*
X29220Y37558D01*
X29207Y37690D01*
X29189Y37822D01*
X29168Y37952D01*
X29143Y38083D01*
X29114Y38212D01*
X29081Y38340D01*
X29045Y38468D01*
X29005Y38594D01*
X28961Y38719D01*
X28913Y38843D01*
X28862Y38965D01*
X28807Y39086D01*
X28749Y39205D01*
X28687Y39323D01*
X28622Y39438D01*
X28553Y39552D01*
X28482Y39663D01*
X28406Y39772D01*
X28328Y39879D01*
X28247Y39984D01*
X28162Y40086D01*
X28075Y40186D01*
X27985Y40283D01*
X27892Y40378D01*
X27796Y40469D01*
X27698Y40558D01*
X27597Y40644D01*
X27493Y40727D01*
X27387Y40807D01*
X27279Y40883D01*
X27169Y40957D01*
X27056Y41027D01*
X26942Y41094D01*
X26825Y41157D01*
X26707Y41217D01*
X26587Y41274D01*
X26465Y41327D01*
X26342Y41376D01*
X26218Y41422D01*
X26092Y41464D01*
X25965Y41502D01*
X25837Y41537D01*
X25708Y41568D01*
X25579Y41595D01*
X25448Y41618D01*
X25317Y41638D01*
X25185Y41653D01*
X25053Y41665D01*
X24921Y41673D01*
X24788Y41677D01*
X24656Y41677D01*
X24523Y41673D01*
X24391Y41665D01*
X24259Y41653D01*
X24127Y41638D01*
X23996Y41618D01*
X23865Y41595D01*
X23736Y41568D01*
X23607Y41537D01*
X23479Y41502D01*
X23352Y41464D01*
X23226Y41422D01*
X23102Y41376D01*
X22979Y41327D01*
X22857Y41274D01*
X22737Y41217D01*
X22619Y41157D01*
X22502Y41094D01*
X22388Y41027D01*
X22275Y40957D01*
X22165Y40883D01*
X22057Y40807D01*
X21951Y40727D01*
X21847Y40644D01*
X21746Y40558D01*
X21648Y40469D01*
X21552Y40378D01*
X21459Y40283D01*
X21369Y40186D01*
X21282Y40086D01*
X21197Y39984D01*
X21116Y39879D01*
X21038Y39772D01*
X20962Y39663D01*
X20891Y39552D01*
X20822Y39438D01*
X20757Y39323D01*
X20695Y39205D01*
X20637Y39086D01*
X20582Y38965D01*
X20531Y38843D01*
X20483Y38719D01*
X20439Y38594D01*
X20399Y38468D01*
X20363Y38340D01*
X20330Y38212D01*
X20301Y38083D01*
X20276Y37952D01*
X20255Y37822D01*
X20237Y37690D01*
X20224Y37558D01*
X20214Y37426D01*
X20208Y37294D01*
X20206Y37161D01*
X12982Y38064D02*
X12982Y32646D01*
X12982Y38064D02*
X12984Y38183D01*
X12990Y38303D01*
X13000Y38422D01*
X13014Y38540D01*
X13031Y38659D01*
X13053Y38776D01*
X13078Y38893D01*
X13108Y39008D01*
X13141Y39123D01*
X13178Y39237D01*
X13218Y39349D01*
X13263Y39460D01*
X13311Y39569D01*
X13362Y39677D01*
X13417Y39783D01*
X13476Y39887D01*
X13538Y39989D01*
X13603Y40089D01*
X13672Y40187D01*
X13744Y40283D01*
X13819Y40376D01*
X13896Y40466D01*
X13977Y40554D01*
X14061Y40639D01*
X14148Y40721D01*
X14237Y40801D01*
X14329Y40877D01*
X14423Y40951D01*
X14520Y41021D01*
X14618Y41088D01*
X14719Y41152D01*
X14823Y41212D01*
X14928Y41269D01*
X15035Y41322D01*
X15143Y41372D01*
X15253Y41418D01*
X15365Y41460D01*
X15478Y41499D01*
X15592Y41534D01*
X15707Y41565D01*
X15824Y41593D01*
X15941Y41616D01*
X16058Y41636D01*
X16177Y41652D01*
X16296Y41664D01*
X16415Y41672D01*
X16534Y41676D01*
X16654Y41676D01*
X16773Y41672D01*
X16892Y41664D01*
X17011Y41652D01*
X17130Y41636D01*
X17247Y41616D01*
X17364Y41593D01*
X17481Y41565D01*
X17596Y41534D01*
X17710Y41499D01*
X17823Y41460D01*
X17935Y41418D01*
X18045Y41372D01*
X18153Y41322D01*
X18260Y41269D01*
X18365Y41212D01*
X18469Y41152D01*
X18570Y41088D01*
X18668Y41021D01*
X18765Y40951D01*
X18859Y40877D01*
X18951Y40801D01*
X19040Y40721D01*
X19127Y40639D01*
X19211Y40554D01*
X19292Y40466D01*
X19369Y40376D01*
X19444Y40283D01*
X19516Y40187D01*
X19585Y40089D01*
X19650Y39989D01*
X19712Y39887D01*
X19771Y39783D01*
X19826Y39677D01*
X19877Y39569D01*
X19925Y39460D01*
X19970Y39349D01*
X20010Y39237D01*
X20047Y39123D01*
X20080Y39008D01*
X20110Y38893D01*
X20135Y38776D01*
X20157Y38659D01*
X20174Y38540D01*
X20188Y38422D01*
X20198Y38303D01*
X20204Y38183D01*
X20206Y38064D01*
X20207Y38064D02*
X20207Y34452D01*
X12982Y47374D02*
X29238Y52792D01*
X12982Y58211D01*
X103537Y19793D02*
X103537Y17084D01*
X103537Y19793D02*
X112568Y19793D01*
X112568Y14374D01*
X112566Y14256D01*
X112560Y14138D01*
X112551Y14020D01*
X112537Y13903D01*
X112520Y13786D01*
X112499Y13669D01*
X112474Y13554D01*
X112445Y13439D01*
X112412Y13325D01*
X112376Y13213D01*
X112336Y13102D01*
X112293Y12992D01*
X112246Y12883D01*
X112196Y12776D01*
X112141Y12671D01*
X112084Y12568D01*
X112023Y12467D01*
X111959Y12367D01*
X111892Y12270D01*
X111822Y12175D01*
X111748Y12083D01*
X111672Y11992D01*
X111592Y11905D01*
X111510Y11820D01*
X111425Y11738D01*
X111338Y11658D01*
X111247Y11582D01*
X111155Y11508D01*
X111060Y11438D01*
X110963Y11371D01*
X110863Y11307D01*
X110762Y11246D01*
X110659Y11189D01*
X110554Y11134D01*
X110447Y11084D01*
X110338Y11037D01*
X110228Y10994D01*
X110117Y10954D01*
X110005Y10918D01*
X109891Y10885D01*
X109776Y10856D01*
X109661Y10831D01*
X109544Y10810D01*
X109427Y10793D01*
X109310Y10779D01*
X109192Y10770D01*
X109074Y10764D01*
X108956Y10762D01*
X99924Y10762D01*
X99806Y10764D01*
X99688Y10770D01*
X99570Y10779D01*
X99452Y10793D01*
X99335Y10810D01*
X99219Y10831D01*
X99104Y10856D01*
X98989Y10885D01*
X98875Y10918D01*
X98763Y10954D01*
X98651Y10994D01*
X98541Y11037D01*
X98433Y11084D01*
X98326Y11135D01*
X98221Y11189D01*
X98118Y11246D01*
X98016Y11307D01*
X97917Y11371D01*
X97820Y11438D01*
X97725Y11509D01*
X97632Y11582D01*
X97542Y11659D01*
X97454Y11738D01*
X97369Y11820D01*
X97287Y11905D01*
X97208Y11993D01*
X97131Y12083D01*
X97058Y12176D01*
X96987Y12270D01*
X96920Y12368D01*
X96856Y12467D01*
X96795Y12568D01*
X96738Y12672D01*
X96684Y12777D01*
X96633Y12884D01*
X96586Y12992D01*
X96543Y13102D01*
X96503Y13214D01*
X96467Y13326D01*
X96434Y13440D01*
X96405Y13555D01*
X96380Y13670D01*
X96359Y13786D01*
X96342Y13903D01*
X96328Y14021D01*
X96319Y14139D01*
X96313Y14257D01*
X96311Y14375D01*
X96312Y14374D02*
X96312Y19793D01*
X96312Y27435D02*
X112568Y27435D01*
X112568Y36466D02*
X96312Y27435D01*
X96312Y36466D02*
X112568Y36466D01*
X112568Y44109D02*
X96312Y44109D01*
X96312Y48624D01*
X96314Y48755D01*
X96320Y48887D01*
X96329Y49018D01*
X96343Y49148D01*
X96360Y49279D01*
X96381Y49408D01*
X96405Y49537D01*
X96434Y49665D01*
X96466Y49793D01*
X96502Y49919D01*
X96541Y50044D01*
X96584Y50169D01*
X96631Y50291D01*
X96681Y50413D01*
X96735Y50533D01*
X96792Y50651D01*
X96853Y50767D01*
X96917Y50882D01*
X96984Y50995D01*
X97055Y51106D01*
X97129Y51214D01*
X97206Y51321D01*
X97286Y51425D01*
X97369Y51527D01*
X97454Y51626D01*
X97543Y51723D01*
X97635Y51817D01*
X97729Y51909D01*
X97826Y51998D01*
X97925Y52083D01*
X98027Y52166D01*
X98131Y52246D01*
X98238Y52323D01*
X98346Y52397D01*
X98457Y52468D01*
X98570Y52535D01*
X98685Y52599D01*
X98801Y52660D01*
X98919Y52717D01*
X99039Y52771D01*
X99161Y52821D01*
X99283Y52868D01*
X99408Y52911D01*
X99533Y52950D01*
X99659Y52986D01*
X99787Y53018D01*
X99915Y53047D01*
X100044Y53071D01*
X100173Y53092D01*
X100304Y53109D01*
X100434Y53123D01*
X100565Y53132D01*
X100697Y53138D01*
X100828Y53140D01*
X108052Y53140D01*
X108183Y53138D01*
X108315Y53132D01*
X108446Y53123D01*
X108576Y53109D01*
X108707Y53092D01*
X108836Y53071D01*
X108965Y53047D01*
X109093Y53018D01*
X109221Y52986D01*
X109347Y52950D01*
X109472Y52911D01*
X109597Y52868D01*
X109719Y52821D01*
X109841Y52771D01*
X109961Y52717D01*
X110079Y52660D01*
X110195Y52599D01*
X110310Y52535D01*
X110423Y52468D01*
X110534Y52397D01*
X110642Y52323D01*
X110749Y52246D01*
X110853Y52166D01*
X110955Y52083D01*
X111054Y51998D01*
X111151Y51909D01*
X111245Y51817D01*
X111337Y51723D01*
X111426Y51626D01*
X111511Y51527D01*
X111594Y51425D01*
X111674Y51321D01*
X111751Y51214D01*
X111825Y51106D01*
X111896Y50995D01*
X111963Y50882D01*
X112027Y50767D01*
X112088Y50651D01*
X112145Y50533D01*
X112199Y50413D01*
X112249Y50291D01*
X112296Y50169D01*
X112339Y50044D01*
X112378Y49919D01*
X112414Y49793D01*
X112446Y49665D01*
X112475Y49537D01*
X112499Y49408D01*
X112520Y49278D01*
X112537Y49148D01*
X112551Y49018D01*
X112560Y48887D01*
X112566Y48755D01*
X112568Y48624D01*
X112568Y44109D01*
X940557Y302013D02*
X943266Y302013D01*
X943266Y292982D01*
X937848Y292982D01*
X937730Y292984D01*
X937612Y292990D01*
X937494Y292999D01*
X937377Y293013D01*
X937260Y293030D01*
X937143Y293051D01*
X937028Y293076D01*
X936913Y293105D01*
X936799Y293138D01*
X936687Y293174D01*
X936576Y293214D01*
X936466Y293257D01*
X936357Y293304D01*
X936250Y293354D01*
X936145Y293409D01*
X936042Y293466D01*
X935941Y293527D01*
X935841Y293591D01*
X935744Y293658D01*
X935649Y293728D01*
X935557Y293802D01*
X935466Y293878D01*
X935379Y293958D01*
X935294Y294040D01*
X935212Y294125D01*
X935132Y294212D01*
X935056Y294303D01*
X934982Y294395D01*
X934912Y294490D01*
X934845Y294587D01*
X934781Y294687D01*
X934720Y294788D01*
X934663Y294891D01*
X934608Y294996D01*
X934558Y295103D01*
X934511Y295212D01*
X934468Y295322D01*
X934428Y295433D01*
X934392Y295545D01*
X934359Y295659D01*
X934330Y295774D01*
X934305Y295889D01*
X934284Y296006D01*
X934267Y296123D01*
X934253Y296240D01*
X934244Y296358D01*
X934238Y296476D01*
X934236Y296594D01*
X934235Y296594D02*
X934235Y305626D01*
X934236Y305626D02*
X934238Y305744D01*
X934244Y305862D01*
X934253Y305980D01*
X934267Y306097D01*
X934284Y306214D01*
X934305Y306331D01*
X934330Y306446D01*
X934359Y306561D01*
X934392Y306675D01*
X934428Y306787D01*
X934468Y306898D01*
X934511Y307008D01*
X934558Y307117D01*
X934608Y307224D01*
X934662Y307329D01*
X934720Y307432D01*
X934781Y307533D01*
X934845Y307633D01*
X934912Y307730D01*
X934982Y307825D01*
X935056Y307917D01*
X935132Y308008D01*
X935212Y308095D01*
X935294Y308180D01*
X935379Y308262D01*
X935466Y308342D01*
X935557Y308418D01*
X935649Y308492D01*
X935744Y308562D01*
X935841Y308629D01*
X935941Y308693D01*
X936042Y308754D01*
X936145Y308811D01*
X936250Y308865D01*
X936357Y308916D01*
X936466Y308963D01*
X936576Y309006D01*
X936687Y309046D01*
X936799Y309082D01*
X936913Y309115D01*
X937028Y309144D01*
X937143Y309169D01*
X937260Y309190D01*
X937377Y309207D01*
X937494Y309221D01*
X937612Y309230D01*
X937730Y309236D01*
X937848Y309238D01*
X943266Y309238D01*
X951119Y309238D02*
X951119Y292982D01*
X951119Y309238D02*
X955635Y309238D01*
X955768Y309236D01*
X955900Y309230D01*
X956032Y309220D01*
X956164Y309207D01*
X956296Y309189D01*
X956426Y309168D01*
X956557Y309143D01*
X956686Y309114D01*
X956814Y309081D01*
X956942Y309045D01*
X957068Y309005D01*
X957193Y308961D01*
X957317Y308913D01*
X957439Y308862D01*
X957560Y308807D01*
X957679Y308749D01*
X957797Y308687D01*
X957912Y308622D01*
X958026Y308553D01*
X958137Y308482D01*
X958246Y308406D01*
X958353Y308328D01*
X958458Y308247D01*
X958560Y308162D01*
X958660Y308075D01*
X958757Y307985D01*
X958852Y307892D01*
X958943Y307796D01*
X959032Y307698D01*
X959118Y307597D01*
X959201Y307493D01*
X959281Y307387D01*
X959357Y307279D01*
X959431Y307169D01*
X959501Y307056D01*
X959568Y306942D01*
X959631Y306825D01*
X959691Y306707D01*
X959748Y306587D01*
X959801Y306465D01*
X959850Y306342D01*
X959896Y306218D01*
X959938Y306092D01*
X959976Y305965D01*
X960011Y305837D01*
X960042Y305708D01*
X960069Y305579D01*
X960092Y305448D01*
X960112Y305317D01*
X960127Y305185D01*
X960139Y305053D01*
X960147Y304921D01*
X960151Y304788D01*
X960151Y304656D01*
X960147Y304523D01*
X960139Y304391D01*
X960127Y304259D01*
X960112Y304127D01*
X960092Y303996D01*
X960069Y303865D01*
X960042Y303736D01*
X960011Y303607D01*
X959976Y303479D01*
X959938Y303352D01*
X959896Y303226D01*
X959850Y303102D01*
X959801Y302979D01*
X959748Y302857D01*
X959691Y302737D01*
X959631Y302619D01*
X959568Y302502D01*
X959501Y302388D01*
X959431Y302275D01*
X959357Y302165D01*
X959281Y302057D01*
X959201Y301951D01*
X959118Y301847D01*
X959032Y301746D01*
X958943Y301648D01*
X958852Y301552D01*
X958757Y301459D01*
X958660Y301369D01*
X958560Y301282D01*
X958458Y301197D01*
X958353Y301116D01*
X958246Y301038D01*
X958137Y300962D01*
X958026Y300891D01*
X957912Y300822D01*
X957797Y300757D01*
X957679Y300695D01*
X957560Y300637D01*
X957439Y300582D01*
X957317Y300531D01*
X957193Y300483D01*
X957068Y300439D01*
X956942Y300399D01*
X956814Y300363D01*
X956686Y300330D01*
X956557Y300301D01*
X956426Y300276D01*
X956296Y300255D01*
X956164Y300237D01*
X956032Y300224D01*
X955900Y300214D01*
X955768Y300208D01*
X955635Y300206D01*
X955635Y300207D02*
X951119Y300207D01*
X970916Y292982D02*
X971034Y292984D01*
X971152Y292990D01*
X971270Y292999D01*
X971387Y293013D01*
X971504Y293030D01*
X971621Y293051D01*
X971736Y293076D01*
X971851Y293105D01*
X971965Y293138D01*
X972077Y293174D01*
X972188Y293214D01*
X972298Y293257D01*
X972407Y293304D01*
X972514Y293354D01*
X972619Y293409D01*
X972722Y293466D01*
X972823Y293527D01*
X972923Y293591D01*
X973020Y293658D01*
X973115Y293728D01*
X973207Y293802D01*
X973298Y293878D01*
X973385Y293958D01*
X973470Y294040D01*
X973552Y294125D01*
X973632Y294212D01*
X973708Y294303D01*
X973782Y294395D01*
X973852Y294490D01*
X973919Y294587D01*
X973983Y294687D01*
X974044Y294788D01*
X974101Y294891D01*
X974156Y294996D01*
X974206Y295103D01*
X974253Y295212D01*
X974296Y295322D01*
X974336Y295433D01*
X974372Y295545D01*
X974405Y295659D01*
X974434Y295774D01*
X974459Y295889D01*
X974480Y296006D01*
X974497Y296123D01*
X974511Y296240D01*
X974520Y296358D01*
X974526Y296476D01*
X974528Y296594D01*
X970916Y292982D02*
X970733Y292984D01*
X970551Y292991D01*
X970369Y293002D01*
X970187Y293017D01*
X970005Y293037D01*
X969824Y293060D01*
X969644Y293089D01*
X969464Y293121D01*
X969285Y293158D01*
X969108Y293199D01*
X968931Y293245D01*
X968755Y293294D01*
X968581Y293348D01*
X968407Y293406D01*
X968236Y293468D01*
X968066Y293534D01*
X967897Y293605D01*
X967730Y293679D01*
X967565Y293757D01*
X967402Y293839D01*
X967241Y293925D01*
X967082Y294015D01*
X966925Y294109D01*
X966771Y294206D01*
X966619Y294307D01*
X966469Y294412D01*
X966322Y294520D01*
X966178Y294631D01*
X966036Y294746D01*
X965897Y294865D01*
X965761Y294987D01*
X965628Y295112D01*
X965498Y295240D01*
X965950Y305626D02*
X965952Y305744D01*
X965958Y305862D01*
X965967Y305980D01*
X965981Y306097D01*
X965998Y306214D01*
X966019Y306331D01*
X966044Y306446D01*
X966073Y306561D01*
X966106Y306675D01*
X966142Y306787D01*
X966182Y306898D01*
X966225Y307008D01*
X966272Y307117D01*
X966322Y307224D01*
X966377Y307329D01*
X966434Y307432D01*
X966495Y307533D01*
X966559Y307633D01*
X966626Y307730D01*
X966696Y307825D01*
X966770Y307917D01*
X966846Y308008D01*
X966926Y308095D01*
X967008Y308180D01*
X967093Y308262D01*
X967180Y308342D01*
X967271Y308418D01*
X967363Y308492D01*
X967458Y308562D01*
X967555Y308629D01*
X967655Y308693D01*
X967756Y308754D01*
X967859Y308812D01*
X967964Y308866D01*
X968071Y308916D01*
X968180Y308963D01*
X968290Y309007D01*
X968401Y309046D01*
X968514Y309082D01*
X968627Y309115D01*
X968742Y309144D01*
X968857Y309169D01*
X968974Y309190D01*
X969091Y309207D01*
X969208Y309221D01*
X969326Y309230D01*
X969444Y309236D01*
X969562Y309238D01*
X969723Y309236D01*
X969885Y309230D01*
X970046Y309221D01*
X970207Y309207D01*
X970367Y309190D01*
X970527Y309169D01*
X970687Y309144D01*
X970846Y309115D01*
X971004Y309083D01*
X971161Y309047D01*
X971317Y309007D01*
X971473Y308963D01*
X971627Y308915D01*
X971780Y308864D01*
X971932Y308810D01*
X972083Y308751D01*
X972232Y308690D01*
X972379Y308624D01*
X972525Y308555D01*
X972670Y308483D01*
X972812Y308407D01*
X972953Y308328D01*
X973092Y308246D01*
X973228Y308160D01*
X973363Y308071D01*
X973496Y307979D01*
X973626Y307883D01*
X967755Y302465D02*
X967654Y302527D01*
X967554Y302592D01*
X967457Y302661D01*
X967362Y302733D01*
X967269Y302807D01*
X967179Y302885D01*
X967091Y302966D01*
X967006Y303049D01*
X966924Y303135D01*
X966845Y303224D01*
X966768Y303315D01*
X966695Y303409D01*
X966624Y303505D01*
X966557Y303603D01*
X966493Y303703D01*
X966432Y303806D01*
X966375Y303910D01*
X966321Y304016D01*
X966271Y304124D01*
X966224Y304233D01*
X966180Y304344D01*
X966140Y304456D01*
X966104Y304570D01*
X966072Y304684D01*
X966043Y304800D01*
X966018Y304916D01*
X965997Y305033D01*
X965980Y305151D01*
X965966Y305269D01*
X965957Y305388D01*
X965951Y305507D01*
X965949Y305626D01*
X972723Y299755D02*
X972824Y299693D01*
X972924Y299628D01*
X973021Y299559D01*
X973116Y299487D01*
X973209Y299413D01*
X973299Y299335D01*
X973387Y299254D01*
X973472Y299171D01*
X973554Y299085D01*
X973633Y298996D01*
X973710Y298905D01*
X973783Y298811D01*
X973854Y298715D01*
X973921Y298617D01*
X973985Y298517D01*
X974046Y298414D01*
X974103Y298310D01*
X974157Y298204D01*
X974207Y298096D01*
X974254Y297987D01*
X974298Y297876D01*
X974338Y297764D01*
X974374Y297650D01*
X974406Y297536D01*
X974435Y297420D01*
X974460Y297304D01*
X974481Y297187D01*
X974498Y297069D01*
X974512Y296951D01*
X974521Y296832D01*
X974527Y296713D01*
X974529Y296594D01*
X972722Y299755D02*
X967755Y302465D01*
X988041Y292982D02*
X993460Y309238D01*
X998879Y292982D01*
X997524Y297046D02*
X989396Y297046D01*
X1005097Y292982D02*
X1005097Y309238D01*
X1014128Y292982D01*
X1014128Y309238D01*
X1024722Y309238D02*
X1024722Y292982D01*
X1020207Y309238D02*
X1029238Y309238D01*
X267500Y329900D02*
X267500Y355300D01*
X267500Y329900D02*
X290360Y329900D01*
X292900Y332440D01*
X295440Y329900D01*
X315760Y329900D01*
X318300Y332440D01*
X320840Y329900D01*
X341160Y329900D01*
X343700Y332440D01*
X346240Y329900D01*
X366560Y329900D01*
X369100Y332440D01*
X371640Y329900D01*
X445300Y329900D02*
X445300Y355300D01*
X371640Y355300D02*
X369100Y352760D01*
X366560Y355300D01*
X346240Y355300D01*
X343700Y352760D01*
X341160Y355300D01*
X320840Y355300D01*
X318300Y352760D01*
X315760Y355300D01*
X295440Y355300D01*
X292900Y352760D01*
X290360Y355300D01*
X267500Y355300D01*
X371640Y329900D02*
X391960Y329900D01*
X394500Y332440D01*
X397040Y329900D01*
X417360Y329900D01*
X419900Y332440D01*
X422440Y329900D01*
X419900Y352760D02*
X422440Y355300D01*
X419900Y352760D02*
X417360Y355300D01*
X397040Y355300D01*
X394500Y352760D01*
X391960Y355300D01*
X371640Y355300D01*
X422440Y355300D02*
X445300Y355300D01*
X445300Y329900D02*
X422440Y329900D01*
D12*
X278930Y369905D02*
X275755Y367365D01*
X278930Y369905D02*
X278930Y358475D01*
X275755Y358475D02*
X282105Y358475D01*
X428155Y368635D02*
X428155Y369905D01*
X434505Y369905D01*
X431330Y358475D01*
X311315Y359745D02*
X306235Y359745D01*
X306235Y371175D01*
X311315Y371175D01*
X310045Y366095D02*
X306235Y366095D01*
X315735Y359745D02*
X318910Y359745D01*
X319021Y359747D01*
X319131Y359753D01*
X319242Y359762D01*
X319352Y359776D01*
X319461Y359793D01*
X319570Y359814D01*
X319678Y359839D01*
X319785Y359868D01*
X319891Y359900D01*
X319996Y359936D01*
X320099Y359976D01*
X320201Y360019D01*
X320302Y360066D01*
X320401Y360117D01*
X320498Y360170D01*
X320592Y360227D01*
X320685Y360288D01*
X320776Y360351D01*
X320865Y360418D01*
X320951Y360488D01*
X321034Y360561D01*
X321116Y360636D01*
X321194Y360714D01*
X321269Y360796D01*
X321342Y360879D01*
X321412Y360965D01*
X321479Y361054D01*
X321542Y361145D01*
X321603Y361238D01*
X321660Y361332D01*
X321713Y361429D01*
X321764Y361528D01*
X321811Y361629D01*
X321854Y361731D01*
X321894Y361834D01*
X321930Y361939D01*
X321962Y362045D01*
X321991Y362152D01*
X322016Y362260D01*
X322037Y362369D01*
X322054Y362478D01*
X322068Y362588D01*
X322077Y362699D01*
X322083Y362809D01*
X322085Y362920D01*
X322083Y363031D01*
X322077Y363141D01*
X322068Y363252D01*
X322054Y363362D01*
X322037Y363471D01*
X322016Y363580D01*
X321991Y363688D01*
X321962Y363795D01*
X321930Y363901D01*
X321894Y364006D01*
X321854Y364109D01*
X321811Y364211D01*
X321764Y364312D01*
X321713Y364411D01*
X321660Y364507D01*
X321603Y364602D01*
X321542Y364695D01*
X321479Y364786D01*
X321412Y364875D01*
X321342Y364961D01*
X321269Y365044D01*
X321194Y365126D01*
X321116Y365204D01*
X321034Y365279D01*
X320951Y365352D01*
X320865Y365422D01*
X320776Y365489D01*
X320685Y365552D01*
X320592Y365613D01*
X320498Y365670D01*
X320401Y365723D01*
X320302Y365774D01*
X320201Y365821D01*
X320099Y365864D01*
X319996Y365904D01*
X319891Y365940D01*
X319785Y365972D01*
X319678Y366001D01*
X319570Y366026D01*
X319461Y366047D01*
X319352Y366064D01*
X319242Y366078D01*
X319131Y366087D01*
X319021Y366093D01*
X318910Y366095D01*
X319545Y371175D02*
X315735Y371175D01*
X319545Y371175D02*
X319645Y371173D01*
X319744Y371167D01*
X319844Y371157D01*
X319942Y371144D01*
X320041Y371126D01*
X320138Y371105D01*
X320234Y371080D01*
X320330Y371051D01*
X320424Y371018D01*
X320517Y370982D01*
X320608Y370942D01*
X320698Y370898D01*
X320786Y370851D01*
X320872Y370801D01*
X320956Y370747D01*
X321038Y370690D01*
X321117Y370630D01*
X321195Y370566D01*
X321269Y370500D01*
X321341Y370431D01*
X321410Y370359D01*
X321476Y370285D01*
X321540Y370207D01*
X321600Y370128D01*
X321657Y370046D01*
X321711Y369962D01*
X321761Y369876D01*
X321808Y369788D01*
X321852Y369698D01*
X321892Y369607D01*
X321928Y369514D01*
X321961Y369420D01*
X321990Y369324D01*
X322015Y369228D01*
X322036Y369131D01*
X322054Y369032D01*
X322067Y368934D01*
X322077Y368834D01*
X322083Y368735D01*
X322085Y368635D01*
X322083Y368535D01*
X322077Y368436D01*
X322067Y368336D01*
X322054Y368238D01*
X322036Y368139D01*
X322015Y368042D01*
X321990Y367946D01*
X321961Y367850D01*
X321928Y367756D01*
X321892Y367663D01*
X321852Y367572D01*
X321808Y367482D01*
X321761Y367394D01*
X321711Y367308D01*
X321657Y367224D01*
X321600Y367142D01*
X321540Y367063D01*
X321476Y366985D01*
X321410Y366911D01*
X321341Y366839D01*
X321269Y366770D01*
X321195Y366704D01*
X321117Y366640D01*
X321038Y366580D01*
X320956Y366523D01*
X320872Y366469D01*
X320786Y366419D01*
X320698Y366372D01*
X320608Y366328D01*
X320517Y366288D01*
X320424Y366252D01*
X320330Y366219D01*
X320234Y366190D01*
X320138Y366165D01*
X320041Y366144D01*
X319942Y366126D01*
X319844Y366113D01*
X319744Y366103D01*
X319645Y366097D01*
X319545Y366095D01*
X317005Y366095D01*
X330657Y371176D02*
X330761Y371174D01*
X330866Y371168D01*
X330970Y371159D01*
X331073Y371146D01*
X331176Y371128D01*
X331278Y371108D01*
X331380Y371083D01*
X331480Y371055D01*
X331580Y371023D01*
X331678Y370987D01*
X331775Y370948D01*
X331870Y370906D01*
X331964Y370860D01*
X332056Y370810D01*
X332146Y370758D01*
X332234Y370702D01*
X332320Y370642D01*
X332404Y370580D01*
X332485Y370515D01*
X332564Y370447D01*
X332641Y370375D01*
X332714Y370302D01*
X332786Y370225D01*
X332854Y370146D01*
X332919Y370065D01*
X332981Y369981D01*
X333041Y369895D01*
X333097Y369807D01*
X333149Y369717D01*
X333199Y369625D01*
X333245Y369531D01*
X333287Y369436D01*
X333326Y369339D01*
X333362Y369241D01*
X333394Y369141D01*
X333422Y369041D01*
X333447Y368939D01*
X333467Y368837D01*
X333485Y368734D01*
X333498Y368631D01*
X333507Y368527D01*
X333513Y368422D01*
X333515Y368318D01*
X330657Y371175D02*
X330539Y371173D01*
X330420Y371167D01*
X330302Y371158D01*
X330185Y371145D01*
X330068Y371127D01*
X329951Y371107D01*
X329835Y371082D01*
X329720Y371054D01*
X329607Y371021D01*
X329494Y370986D01*
X329382Y370946D01*
X329272Y370904D01*
X329163Y370857D01*
X329055Y370807D01*
X328950Y370754D01*
X328846Y370697D01*
X328744Y370637D01*
X328644Y370574D01*
X328546Y370507D01*
X328450Y370438D01*
X328357Y370365D01*
X328266Y370289D01*
X328177Y370211D01*
X328091Y370129D01*
X328008Y370045D01*
X327927Y369959D01*
X327850Y369869D01*
X327775Y369778D01*
X327703Y369684D01*
X327634Y369587D01*
X327569Y369489D01*
X327506Y369388D01*
X327447Y369285D01*
X327391Y369181D01*
X327339Y369075D01*
X327290Y368967D01*
X327245Y368858D01*
X327203Y368747D01*
X327165Y368635D01*
X332562Y366096D02*
X332638Y366171D01*
X332713Y366250D01*
X332784Y366331D01*
X332853Y366415D01*
X332918Y366501D01*
X332980Y366589D01*
X333040Y366679D01*
X333096Y366771D01*
X333149Y366866D01*
X333198Y366962D01*
X333244Y367060D01*
X333287Y367159D01*
X333326Y367260D01*
X333361Y367362D01*
X333393Y367465D01*
X333421Y367569D01*
X333446Y367674D01*
X333467Y367781D01*
X333484Y367887D01*
X333497Y367994D01*
X333506Y368102D01*
X333512Y368210D01*
X333514Y368318D01*
X332562Y366095D02*
X327165Y359745D01*
X333515Y359745D01*
D13*
X302900Y199875D02*
X277500Y199875D01*
X277500Y120500D01*
X277500Y95100D01*
X302900Y95100D01*
X302900Y120500D01*
X302900Y199875D01*
X302900Y120500D02*
X277500Y120500D01*
D14*
X282326Y84136D02*
X283723Y84136D01*
X283723Y79479D01*
X280929Y79479D01*
X280845Y79481D01*
X280762Y79486D01*
X280679Y79496D01*
X280596Y79509D01*
X280514Y79526D01*
X280433Y79546D01*
X280353Y79570D01*
X280274Y79598D01*
X280197Y79629D01*
X280121Y79663D01*
X280046Y79701D01*
X279973Y79743D01*
X279903Y79787D01*
X279834Y79835D01*
X279767Y79885D01*
X279703Y79939D01*
X279642Y79995D01*
X279582Y80055D01*
X279526Y80116D01*
X279472Y80180D01*
X279422Y80247D01*
X279374Y80316D01*
X279330Y80386D01*
X279288Y80459D01*
X279250Y80534D01*
X279216Y80610D01*
X279185Y80687D01*
X279157Y80766D01*
X279133Y80846D01*
X279113Y80927D01*
X279096Y81009D01*
X279083Y81092D01*
X279073Y81175D01*
X279068Y81258D01*
X279066Y81342D01*
X279066Y85998D01*
X279068Y86084D01*
X279074Y86170D01*
X279084Y86255D01*
X279098Y86340D01*
X279115Y86425D01*
X279137Y86508D01*
X279163Y86590D01*
X279192Y86671D01*
X279225Y86750D01*
X279261Y86828D01*
X279301Y86905D01*
X279345Y86979D01*
X279392Y87051D01*
X279442Y87121D01*
X279496Y87188D01*
X279552Y87253D01*
X279612Y87315D01*
X279674Y87375D01*
X279739Y87431D01*
X279806Y87485D01*
X279876Y87535D01*
X279948Y87582D01*
X280022Y87626D01*
X280099Y87666D01*
X280176Y87702D01*
X280256Y87735D01*
X280337Y87764D01*
X280419Y87790D01*
X280502Y87812D01*
X280587Y87829D01*
X280672Y87843D01*
X280757Y87853D01*
X280843Y87859D01*
X280929Y87861D01*
X283723Y87861D01*
X289036Y87861D02*
X289036Y79479D01*
X289036Y87861D02*
X291364Y87861D01*
X291459Y87859D01*
X291554Y87853D01*
X291648Y87844D01*
X291742Y87830D01*
X291836Y87813D01*
X291928Y87792D01*
X292020Y87767D01*
X292110Y87738D01*
X292200Y87706D01*
X292288Y87670D01*
X292374Y87630D01*
X292459Y87588D01*
X292542Y87541D01*
X292623Y87491D01*
X292701Y87438D01*
X292778Y87382D01*
X292852Y87323D01*
X292924Y87261D01*
X292993Y87196D01*
X293060Y87128D01*
X293123Y87058D01*
X293184Y86984D01*
X293242Y86909D01*
X293296Y86831D01*
X293348Y86751D01*
X293396Y86669D01*
X293440Y86586D01*
X293482Y86500D01*
X293519Y86413D01*
X293553Y86324D01*
X293584Y86234D01*
X293611Y86143D01*
X293634Y86051D01*
X293653Y85958D01*
X293668Y85864D01*
X293680Y85770D01*
X293688Y85675D01*
X293692Y85580D01*
X293692Y85486D01*
X293688Y85391D01*
X293680Y85296D01*
X293668Y85202D01*
X293653Y85108D01*
X293634Y85015D01*
X293611Y84923D01*
X293584Y84832D01*
X293553Y84742D01*
X293519Y84653D01*
X293482Y84566D01*
X293440Y84480D01*
X293396Y84397D01*
X293348Y84315D01*
X293296Y84235D01*
X293242Y84157D01*
X293184Y84082D01*
X293123Y84008D01*
X293060Y83938D01*
X292993Y83870D01*
X292924Y83805D01*
X292852Y83743D01*
X292778Y83684D01*
X292701Y83628D01*
X292623Y83575D01*
X292542Y83525D01*
X292459Y83478D01*
X292374Y83436D01*
X292288Y83396D01*
X292200Y83360D01*
X292110Y83328D01*
X292020Y83299D01*
X291928Y83274D01*
X291836Y83253D01*
X291742Y83236D01*
X291648Y83222D01*
X291554Y83213D01*
X291459Y83207D01*
X291364Y83205D01*
X291364Y83204D02*
X289036Y83204D01*
X300148Y79479D02*
X300234Y79481D01*
X300320Y79487D01*
X300405Y79497D01*
X300490Y79511D01*
X300575Y79528D01*
X300658Y79550D01*
X300740Y79576D01*
X300821Y79605D01*
X300901Y79638D01*
X300978Y79674D01*
X301055Y79714D01*
X301129Y79758D01*
X301201Y79805D01*
X301271Y79855D01*
X301338Y79909D01*
X301403Y79965D01*
X301465Y80025D01*
X301525Y80087D01*
X301581Y80152D01*
X301635Y80219D01*
X301685Y80289D01*
X301732Y80361D01*
X301776Y80435D01*
X301816Y80512D01*
X301852Y80590D01*
X301885Y80669D01*
X301914Y80750D01*
X301940Y80832D01*
X301962Y80915D01*
X301979Y81000D01*
X301993Y81085D01*
X302003Y81170D01*
X302009Y81256D01*
X302011Y81342D01*
X300148Y79479D02*
X300024Y79481D01*
X299900Y79487D01*
X299776Y79497D01*
X299652Y79510D01*
X299529Y79528D01*
X299407Y79549D01*
X299285Y79575D01*
X299164Y79604D01*
X299044Y79637D01*
X298926Y79674D01*
X298808Y79714D01*
X298692Y79758D01*
X298577Y79806D01*
X298464Y79857D01*
X298353Y79912D01*
X298243Y79971D01*
X298135Y80033D01*
X298029Y80098D01*
X297926Y80167D01*
X297824Y80238D01*
X297725Y80313D01*
X297629Y80391D01*
X297534Y80472D01*
X297443Y80556D01*
X297354Y80643D01*
X297587Y85998D02*
X297589Y86082D01*
X297594Y86165D01*
X297604Y86248D01*
X297617Y86331D01*
X297634Y86413D01*
X297654Y86494D01*
X297678Y86574D01*
X297706Y86653D01*
X297737Y86730D01*
X297771Y86806D01*
X297809Y86881D01*
X297851Y86954D01*
X297895Y87024D01*
X297943Y87093D01*
X297993Y87160D01*
X298047Y87224D01*
X298103Y87285D01*
X298163Y87345D01*
X298224Y87401D01*
X298288Y87455D01*
X298355Y87505D01*
X298424Y87553D01*
X298494Y87597D01*
X298567Y87639D01*
X298642Y87677D01*
X298718Y87711D01*
X298795Y87742D01*
X298874Y87770D01*
X298954Y87794D01*
X299035Y87814D01*
X299117Y87831D01*
X299200Y87844D01*
X299283Y87854D01*
X299366Y87859D01*
X299450Y87861D01*
X299450Y87862D02*
X299562Y87860D01*
X299675Y87855D01*
X299787Y87846D01*
X299898Y87833D01*
X300010Y87817D01*
X300120Y87797D01*
X300230Y87774D01*
X300339Y87747D01*
X300447Y87717D01*
X300555Y87683D01*
X300661Y87646D01*
X300765Y87605D01*
X300869Y87561D01*
X300971Y87514D01*
X301071Y87463D01*
X301170Y87409D01*
X301267Y87352D01*
X301362Y87292D01*
X301455Y87229D01*
X301546Y87163D01*
X298518Y84368D02*
X298446Y84413D01*
X298375Y84461D01*
X298307Y84513D01*
X298241Y84567D01*
X298178Y84624D01*
X298117Y84684D01*
X298059Y84747D01*
X298004Y84813D01*
X297952Y84880D01*
X297904Y84950D01*
X297858Y85022D01*
X297816Y85097D01*
X297777Y85173D01*
X297741Y85250D01*
X297709Y85329D01*
X297681Y85410D01*
X297656Y85492D01*
X297635Y85575D01*
X297618Y85658D01*
X297604Y85743D01*
X297595Y85827D01*
X297589Y85913D01*
X297587Y85998D01*
X301080Y82972D02*
X301152Y82927D01*
X301223Y82879D01*
X301291Y82827D01*
X301357Y82773D01*
X301420Y82716D01*
X301481Y82656D01*
X301539Y82593D01*
X301594Y82527D01*
X301646Y82460D01*
X301694Y82390D01*
X301740Y82318D01*
X301782Y82243D01*
X301821Y82167D01*
X301857Y82090D01*
X301889Y82011D01*
X301917Y81930D01*
X301942Y81848D01*
X301963Y81765D01*
X301980Y81682D01*
X301994Y81597D01*
X302003Y81513D01*
X302009Y81427D01*
X302011Y81342D01*
X301080Y82972D02*
X298519Y84369D01*
D13*
X91600Y46850D02*
X91600Y8750D01*
X91600Y46850D02*
X40800Y46850D01*
X40800Y8750D01*
X91600Y8750D01*
D12*
X89700Y613000D02*
X24700Y613000D01*
X89700Y613000D02*
X168700Y613000D01*
X234700Y613000D01*
X234700Y103000D01*
X24700Y103000D01*
X24700Y613000D01*
X89700Y613000D02*
X89700Y628000D01*
X169700Y628000D01*
X168700Y613000D01*
X89700Y613000D02*
X89700Y568000D01*
X169700Y568000D01*
X168700Y613000D01*
D13*
X511500Y435000D02*
X536900Y435000D01*
X511500Y435000D02*
X511500Y333400D01*
X511500Y308000D01*
X536900Y308000D01*
X536900Y333400D01*
X536900Y435000D01*
X536900Y333400D02*
X511500Y333400D01*
D14*
X515353Y300761D02*
X515353Y292379D01*
X515353Y300761D02*
X517681Y300761D01*
X517776Y300759D01*
X517871Y300753D01*
X517965Y300744D01*
X518059Y300730D01*
X518153Y300713D01*
X518245Y300692D01*
X518337Y300667D01*
X518427Y300638D01*
X518517Y300606D01*
X518605Y300570D01*
X518691Y300530D01*
X518776Y300488D01*
X518859Y300441D01*
X518940Y300391D01*
X519018Y300338D01*
X519095Y300282D01*
X519169Y300223D01*
X519241Y300161D01*
X519310Y300096D01*
X519377Y300028D01*
X519440Y299958D01*
X519501Y299884D01*
X519559Y299809D01*
X519613Y299731D01*
X519665Y299651D01*
X519713Y299569D01*
X519757Y299486D01*
X519799Y299400D01*
X519836Y299313D01*
X519870Y299224D01*
X519901Y299134D01*
X519928Y299043D01*
X519951Y298951D01*
X519970Y298858D01*
X519985Y298764D01*
X519997Y298670D01*
X520005Y298575D01*
X520009Y298480D01*
X520009Y298386D01*
X520005Y298291D01*
X519997Y298196D01*
X519985Y298102D01*
X519970Y298008D01*
X519951Y297915D01*
X519928Y297823D01*
X519901Y297732D01*
X519870Y297642D01*
X519836Y297553D01*
X519799Y297466D01*
X519757Y297380D01*
X519713Y297297D01*
X519665Y297215D01*
X519613Y297135D01*
X519559Y297057D01*
X519501Y296982D01*
X519440Y296908D01*
X519377Y296838D01*
X519310Y296770D01*
X519241Y296705D01*
X519169Y296643D01*
X519095Y296584D01*
X519018Y296528D01*
X518940Y296475D01*
X518859Y296425D01*
X518776Y296378D01*
X518691Y296336D01*
X518605Y296296D01*
X518517Y296260D01*
X518427Y296228D01*
X518337Y296199D01*
X518245Y296174D01*
X518153Y296153D01*
X518059Y296136D01*
X517965Y296122D01*
X517871Y296113D01*
X517776Y296107D01*
X517681Y296105D01*
X517681Y296104D02*
X515353Y296104D01*
X518147Y296104D02*
X520010Y292379D01*
X526122Y292379D02*
X526122Y300761D01*
X523794Y300761D02*
X528450Y300761D01*
X534148Y292379D02*
X536011Y292379D01*
X534148Y292379D02*
X534064Y292381D01*
X533981Y292386D01*
X533898Y292396D01*
X533815Y292409D01*
X533733Y292426D01*
X533652Y292446D01*
X533572Y292470D01*
X533493Y292498D01*
X533416Y292529D01*
X533340Y292563D01*
X533265Y292601D01*
X533192Y292643D01*
X533122Y292687D01*
X533053Y292735D01*
X532986Y292785D01*
X532922Y292839D01*
X532861Y292895D01*
X532801Y292955D01*
X532745Y293016D01*
X532691Y293080D01*
X532641Y293147D01*
X532593Y293216D01*
X532549Y293286D01*
X532507Y293359D01*
X532469Y293434D01*
X532435Y293510D01*
X532404Y293587D01*
X532376Y293666D01*
X532352Y293746D01*
X532332Y293827D01*
X532315Y293909D01*
X532302Y293992D01*
X532292Y294075D01*
X532287Y294158D01*
X532285Y294242D01*
X532286Y294242D02*
X532286Y298898D01*
X532285Y298898D02*
X532287Y298984D01*
X532293Y299070D01*
X532303Y299155D01*
X532317Y299240D01*
X532334Y299325D01*
X532356Y299408D01*
X532382Y299490D01*
X532411Y299571D01*
X532444Y299650D01*
X532480Y299728D01*
X532520Y299805D01*
X532564Y299879D01*
X532611Y299951D01*
X532661Y300021D01*
X532715Y300088D01*
X532771Y300153D01*
X532831Y300215D01*
X532893Y300275D01*
X532958Y300331D01*
X533025Y300385D01*
X533095Y300435D01*
X533167Y300482D01*
X533241Y300526D01*
X533318Y300566D01*
X533395Y300602D01*
X533475Y300635D01*
X533556Y300664D01*
X533638Y300690D01*
X533721Y300712D01*
X533806Y300729D01*
X533891Y300743D01*
X533976Y300753D01*
X534062Y300759D01*
X534148Y300761D01*
X536011Y300761D01*
M02*
